<?xml version="1.0" encoding="UTF-8"?>
<svg id="Calque_2" data-name="Calque 2" xmlns="http://www.w3.org/2000/svg" viewBox="0 0 1824.49 859.48">
  <defs>
    <style>
      .cls-1 {
        fill: #20201f;
      }

      .cls-1, .cls-2, .cls-3, .cls-4, .cls-5, .cls-6 {
        stroke-width: 0px;
      }

      .cls-2 {
        fill: #000;
      }

      .cls-3 {
        fill: #060606;
      }

      .cls-4 {
        fill: #ed2024;
      }

      .cls-7 {
        opacity: .2;
      }

      .cls-5 {
        fill: #fff;
      }

      .cls-6 {
        fill: #e13926;
      }
    </style>
  </defs>
  <g id="grandmafull-w-logo">
    <g>
      <path class="cls-5" d="M902.76,244.68s7.31-2.28,9.24-6.47c0,0,3.11,2.04,6.46-2.42,0,0,11.24,14.17,16.76,10.31,5.53-3.86,7.95-15.25,4.99-27.61-2.96-12.36-.43-28.2-.43-28.2,0,0,8.69.78,15.11-11.23,0,0,18.75,14.75,30.71-3.82,0,0-7.92-2.65-8.32-11.62,0,0,27.88,17.21,44.2-9.46,0,0-8.73-2.99-12.77-10.1-4.04-7.11-9.29-8-9.29-8,0,0-3.56-20.77,4.44-36.69,0,0-1.13-15.11-9.05-15.27l-1.86-.81s4.93-24.49-1.7-34.18c-6.63-9.7-19.01-9.64-24.07-8.81s-10.84-1.86-11.81-2.75-10.91-20.45-25.21-20.61c-14.3-.16-36.37,18.97-37.66,21.17,0,0-6.22-16.41-16.08-19.4,0,0-7.87-16.32-15.33-17.78s-22.81.81-33.32,15.27-11.31,32-11.31,32c0,0-5.82,30.71-19.64,33.46,0,0,3.31,6.79,10.67,8.89s10.34,5.33,16.49,4.2c0,0,4.93,1.86-2.42,22.63,0,0-1.94,8.05,13.82,15.3,0,0-2.18,6.52,4.36,15.49s.4,26.91-6.47,28.37c0,0,8.49,10.59,24.41,2.67l4.77,1.37s12.45,18.1,28.85,10.75c0,0,11.85-1.13,16.03,31.19,0,0-1.89,1.92-3.5,3.07s-3.8,6.62-3.8,7.96-.32,6.17.08,8.21,2.67,2.91,2.67,2.91Z"/>
      <path class="cls-5" d="M819.23,136.6s-10.04,25.3-.75,55.87c0,0,3.79,8.6,3.45,16.09-.33,7.49-7.18,27.37-7.18,27.37,0,0-6.62,1.29-8.68,0,0,0-3.74,16.97-2.99,23.11.76,6.14.9,34.85,2.86,43.43,1.96,8.59.55,31.77.55,31.77,0,0,15.27-53.77,87.49-107.48l5.12-.05,4.27-2.5,8.58,7.4,5.16-.07,5.53-1.02s16.75-9.75,17.27-13.29c0,0,9.49,6.7,16.94,6.98,7.45.27,14.86,1.18,16.6,9.56,0,0,33.03,24.16,38.99,33.92,5.97,9.76,15.5,21.15,4.71,87.81,0,0,2.41,35.15,8.93,42.77,6.52,7.62-44.28,97.65-44.28,97.65l-114.22,10.16-30.13-83.1-15.32-34.8s-20.41,16.49-51.64,14.49c0,0-19.01-27.55-6.84-72.16,0,0,23.49-74.19,24.05-93.5,0,0-4.12.1-8.25-9.12-4.13-9.22-8.44-19.33-8.44-19.33v-20.2l3.87-4.05,3.1-3.76,2.73-3.18h1.2l7.62,3.81,3.18-1.67,11.81,5.24s.37-37.85,2.95-44.04,7.97-5.82,7.97-5.82c0,0,2.52.66,3.76,1.71Z"/>
      <g>
        <g id="red">
          <path class="cls-4" d="M1049.52,514.64c.05.11.1.21.15.32.01-.8-.03-1.58-.92-1.96-2.17-4-4.34-8-6.51-12-.04-.89-.28-1.67-1.19-2.06t0,0c-.41-.14-.33-.48-.33-.79-.11-.15-.18-.31-.24-.49.08.16.16.32.24.49,0-.78-.06-1.54-.93-1.92-.45-.69-.91-1.38-1.07-2.22-.02-.91-.25-1.7-1.19-2.09,0,0,0,0,0,0,0,0,0,0,0,0-1-1.6-2.08-3.16-2.97-4.81-3.54-6.56-6.44-13.39-8.71-20.49-1.39-4.36-3-8.65-3.47-13.25-.09-.81.35-1.69-.38-2.4l-.09-.09.05-.12c-.05-.72.35-1.51-.37-2.11-.05-.67.28-1.41-.37-1.97-.66-.5-.47-1.34-.58-1.96-.58-3.23-1.98-6.28-2.19-9.59-.02-.71.29-1.46-.3-2.09-.03-.22-.06-.44-.09-.66-.06-.95.35-1.95-.29-2.85h0c-.03-.48-.06-.97-.1-1.45,0-1.01,0-2.03,0-3.04,0,0,0,0,0,0l-.07-.09.06-.09c.69-2.87.94-5.78.79-8.73,0,0,0,0,0,0h0s-.07-.13-.07-.13l.08-.12c.51-.36.41-.91.41-1.41,0-6.32,0-12.65,0-18.97,0-.5.11-1.05-.35-1.45h0c-.03-.22-.05-.44-.08-.67-.03-.7.29-1.45-.31-2.06-.34-.32-.51-.69-.43-1.17-.24-.42-.24-.87-.22-1.31.05.44.12.88.22,1.31,0-5.23,0-10.47,0-15.7,0-.62.2-1.31-.33-1.84h0c-.03-.61-.06-1.22-.09-1.84-.09-1.34.39-2.72-.29-4.01-.39-1.64-1.31-2.04-2.77-1.18,0,0,0,0,0,0h0c-.62.48-.4,1.17-.4,1.78-.02,2.75-.01,5.49-.01,8.24t0,0h0c-.54.87-.82,1.81-.77,2.84-.81,1.42-.26,2.95-.36,4.43,0,0,0,0,0,0,0,0,0,0,0,.01-.36,2.34-.76,4.67-2.6,6.53-.7-1.14-.71-2.39-1.58-3.24-.48-.46-.82-1.3-1.62-.91-.74.36-.52,1.03-.14,1.65.15.25-.04.59-.11.89-.58,2.78-.9,5.62-2.2,8.2-.61.6-.28,1.35-.32,2.05,0,0,0,0,0,0,0,0,0,0,0,0,.08.11.06.21-.04.29-.64.53-.3,1.26-.38,1.9-.26,1.19-.52,2.37-.79,3.56-.65.61-.3,1.38-.34,2.1,0,0,0,0,0,0,0,0,0,0,0,0l.05.13-.09.11c-.72.76-.28,1.68-.34,2.53,0,0,0,0,0,0,0,0,0,0,0,0l.06.11-.09.09c-.71.64-.22,1.68-.79,2.37.17,1.82-1.01,3.32-1.22,5.04-.57.53-.77,1.2-.73,1.96-.43.71-.71,1.47-.73,2.31-.71.74-.85,1.67-.83,2.64-.52.31-.27.83-.34,1.26-1.03,1.7-.91,3.73-1.59,5.53h0s0,0,0,0c.07,2.09-.82,3.98-1.36,5.93-.96,3.51-2.66,6.78-3.35,10.38-.63.6-.3,1.36-.34,2.06,0,0,0,0,0,0,0,0,0,0,0,0,.07.88.14,1.71-.27,2.6-.78,1.7-1.46,3.46-2.03,5.25-2.48,7.85-5.96,15.17-11.11,21.66-1.92,2.43-4.76,4.29-5,7.81-1.29,0-2.57,0-3.86,0h-1.95c-.38-.06-.75-.11-1.13-.18-2.57-.44-4.86-1.91-7.51-2.08-.44-.82-1.19-.87-2-.82t0,0s0,0,0,0c-2.29-.62-3.96-2.28-5.84-3.56-5-3.41-9.77-7.11-13.98-11.48-.29-.96-.87-1.6-1.9-1.76-.98-.91-1.96-1.81-2.93-2.73-1.61-1.54-3.28-3.05-3.71-5.41,0-1.12-.34-2.07-1.3-2.73-.3-.17-.28-.47-.27-.75.06-.7,0-1.34-.8-1.61-1.56-3.37-3.11-6.75-4.69-10.11-2.76-5.86-5.62-11.67-8.28-17.57-1.64-3.63-3.68-7.09-4.93-10.9.02-.77-.09-1.48-.81-1.94.1-.78-.12-1.45-.71-1.99-.17-.34-.56-.59-.46-1.05.1-.81-.08-1.53-.74-2.07h0s0,0,0,0c0-.88.06-1.78-.88-2.31-.47-.28-.26-.75-.31-1.15-.3-1.6,0-3.37-1.32-4.68,0,0,0,0,0,0h0c-.54-1.51-1.21-2.98-1.44-4.58-.04-1.22-.17-2.4-1.23-3.22-.74-2.35-1.48-4.71-2.23-7.06,0-1-.03-1.99-.94-2.67t0,0h0c-1.05-2.56-1.78-5.31-4.13-7.11-.27-.27-.54-.55-.81-.82.6-1.07.85-2.19.42-3.39-.03-.8-.44-1.19-1.24-1.16-3.72-.78-6.95-2.32-8.92-5.8-.07-1.1-.75-1.67-1.73-1.98,0,0,0,0,0,0,0,0,0,0,0,0-.19-.29-.39-.57-.58-.86-.17-.99-.8-1.57-1.72-1.88-.74-1.02-1.48-2.05-2.22-3.07-.03-1.08-.71-1.62-1.63-1.95-.85-1.51-2.06-2.67-3.54-3.56-.09-.13-.18-.25-.27-.38-.69-1.69-1.83-2.93-3.59-3.52-1.24-1.2-1.8-2.85-2.78-4.22-2.27-3.15-3.91-6.65-5.29-10.27-.03-2.25.21-4.56-1.23-6.54.22-.99-.12-1.91-.35-2.84h0c0-.45.12-.84.27-1.27.82-2.38,2.94-4.03,3.56-6.51.57-.21.46-.72.52-1.16.56-.76.52-1.53.03-2.31.52-1.72,2.37-1.99,3.42-3.14,1.04.5,2.09,1.37,3.11-.02.78.02,1.16-.37,1.2-1.14,1.08-.37.56-1.58,1.16-2.21,1.28-.9,3.15.13,4.26-1.3.73-.51.33-1.28.43-1.93h0c-.15-.73-.29-1.47-.44-2.2-.36-1.84-.25-3.71-.37-5.56-.18-2.78.54-5.5.4-8.27h0s0,0,0,0c.07-.52-.19-1.1.27-1.55.83-.64.9-1.55.86-2.5,0,0,0,0,0,0,0,0,0,0,0,0-.08-.87.49-1.47.88-2.15.72-.68.8-1.53.69-2.44,0,0,0,0,0,0h0c.06-.38.06-.78.18-1.14,1.79-5.74,3.63-11.46,5.79-17.08,1.7-4.41,3.78-8.62,5.83-12.86.6-.6.8-1.32.67-2.14,0,0,0,0,0,0,0,0,0,0,0,0,.35-1.88.98-3.64,2.11-5.19,1.36-1.86,2.75-3.7,4.13-5.54.81-.71.31-1.63.39-2.45h0c.2-.25.44-.48.59-.76.47-.89,1.75-1.76.43-2.83-1.11-.9-2.12-.34-3.06.51-.74.67-1.71,1.1-2.37,1.83-2.05,2.25-5.05,3.44-6.54,6.33-1.29,2.51-3.05,4.77-4.43,7.24-1.51,2.7-3.7,4.89-5.28,7.52-3.01,5.02-6.27,9.86-9.73,14.58-.58.34-1.08.73-1.14,1.47h0c-1.02,1.07-2.05,2.14-3.07,3.2-.63.31-1.14.72-1.22,1.48-.22.23-.48.44-.67.7-5.81,7.88-11.85,15.56-17.1,23.86-5.02,7.94-11.28,15.07-16.22,23.09-1.22.82-.52,2.08-.71,3.14-.45.96-.96,1.9-1.35,2.89-.98,2.5-2.49,4.82-2.6,7.62-.66.86-.22,1.85-.32,2.77,0,0,0,0,0,0-.03.25-.06.49-.08.74,0,0,0,0,0,0-.52,1.69-.56,3.37.03,5.05h0c.1.08.13.19.07.31-.09,1.03.07,1.99.75,2.82.4,1.65.8,3.31,1.2,4.96.68,1.51,1.27,3.06,2.3,4.39.29.55.58,1.11.89,1.65,1.34,2.34,2.11,5.02,4.2,6.9.37.68.53,1.48,1.19,1.98,1.07,2.49,2.16,4.98,1.46,7.8-.54.52-.25,1.19-.32,1.8-2.81,5.26-5.87,10.4-7.73,16.11-1.29,1.52-1.88,3.41-2.77,5.14h0s0,0,0,0c0,.24,0,.48,0,.71-.98,1.13-1.45,2.46-1.52,3.94-.7.43-.82,1.11-.83,1.86-.12.28-.24.55-.36.83-1.65,2.29-2.57,4.97-3.93,7.41,0,0,0,0,0,0h0c.12,1.03-.84,1.73-.81,2.73-.59.52-.79,1.19-.75,1.96-.9,2.26-1.7,4.55-1.92,7-.69.49-.33,1.22-.43,1.85-.46,1.67-1.05,3.31-1.37,5.01-.54,2.83-1.9,5.44-2.11,8.34-.76.68-.31,1.57-.4,2.37-.76.68-.31,1.56-.38,2.35-.85.94-.26,2.07-.4,3.1-.72.65-.26,1.68-.78,2.39,0,0,0,0,0,0,0,0,0,0,0,0-.09.61-.04,1.19-.23,1.83-.7,2.31-1.17,4.7-1.72,7.06-.69.8-.84,1.75-.76,2.76-.71.75-.82,1.68-.81,2.65-.57.43-.28,1.07-.41,1.61-.62.8-.79,1.73-.76,2.71-.41,1-.72,2.03-.73,3.12-.84,1.04-.62,2.44-1.21,3.57,0,0,0,0,0,0h0c.18,1.61-.89,3.01-.74,4.61-.72.5-.35,1.25-.45,1.9h0c-.76.55,0,1.39-.38,2.01-.67.58-.32,1.35-.37,2.04,0,0,0,0,0-.01,0,0,0,0,0,.01-.66,1.07-.09,2.32-.5,3.43-.55.64-.25,1.4-.27,2.11,0,0,0,0,0,0,0,0,0,0,0,0-.05.6-.1,1.2-.15,1.8-.58,1.05-.19,2.18-.25,3.27,0,0,0,0,0,0,0,0,0,0,0,0-.02.47-.04.93-.05,1.4-.54,2.21-.73,4.41.08,6.6l-.02-.04c0,1.99-.01,3.99-.02,5.98,0,0,0,0,0,0h0c-.03.24-.05.48-.08.71-.68,1.02-.22,2.14-.31,3.21,0,0,0,0,0,0,0,0,0,0,0,0-.03.49-.06.98-.09,1.46h0s0,0,0,0c-.52,1.82-.55,3.63.02,5.44.12.98.26,1.95.08,2.93.09,1.49-.39,3.02.3,4.47h0c.03.33.06.66.09.99.06.85-.36,1.76.33,2.52.1.08.12.18.05.29.04.69-.29,1.44.33,2.04.1.09.12.2.05.32.05.68-.27,1.42.32,2.02.03.22.06.43.08.65.05.83-.34,1.72.32,2.47h0c.03.2.05.4.08.61.03.72-.32,1.5.33,2.12-.02,1.72.75,3.25,1.19,4.86,1.38,5.14,3.93,9.85,5.64,14.87.44,1.3,1.55,1.96,2.93,2.08,1.02.8,2.18.26,3.28.36,0,0,0,0,0,0h0s.13-.04.13-.04l.1.1c.56.63,1.3.3,1.96.36,1.52.84,3.14.24,4.72.37-.09-.03-.17-.05-.26-.07.09.02.17.04.26.07l-.03-.02c2.04.97,4.19.25,6.29.4,0,0,0,0,0,0,0,0,0,0,0,0l-.04-.03c1.53,1.02,3.22.25,4.82.43,0,0-.02,0-.03,0,0,0,.02,0,.03,0l.11-.07.1.09c.56.68,1.33.38,2.01.41,1.75.08,3.52-.06,5.24.18,3.88.56,7.69-.29,11.53-.35.14,0,.28.01.41,0,.14,0,.28,0,.42,0,.08,0,.16-.16.24-.26,1.18-.1,2.42.44,3.52-.38,1.03-.14,2.17.47,3.1-.41.92-.07,1.93.44,2.74-.38.92-.07,1.92.41,2.74-.38,1.03-.14,2.17.47,3.09-.41.94-.06,1.94.42,2.79-.36l.09-.08.1.06c.98-.08,2.03.42,2.93-.37l.09-.08.1.06c.97-.09,2.03.42,2.91-.37,1.03-.15,2.17.47,3.09-.41.92-.07,1.93.44,2.73-.39.8-.05,1.67.38,2.37-.36.79-.09,1.66.35,2.34-.39.78-.11,1.67.38,2.31-.42.68-.05,1.49.41,1.94-.5h0c2.85-.68,5.72-1.25,8.53-2.05,10.09-2.86,20.16-5.78,30.23-8.71,7.14-2.08,14.44-3.61,21.53-5.88,4.9-1.57,9.78-3.21,14.71-4.63,4.98-1.44,10.02-2.7,15.05-3.96,3.58-.9,7.16-1.86,10.84-2.31,1.08-.09,2.23.43,3.24-.35,1.46-.46,3.08-.04,4.53-.54.33.03.66-.02.88-.44h0s0,0,0,0c.43-.1.89-.13,1.29-.32,3.79-1.77,7.96-1.53,11.95-2.24.68-.05,1.42.27,2.02-.33.35-.03.7-.05,1.05-.08,0,0,0,0,0,0,0,0,0,0,0,0,.7-.03,1.46.29,2.07-.31.36-.02.71-.05,1.07-.07.69-.03,1.44.28,2.05-.31h0c.5-.02.99-.05,1.49-.07.04-.02.07-.03.11-.05-.04.02-.07.03-.11.05.94-.09,1.93.35,2.8-.32.59-.03,1.18-.06,1.77-.09,1.23-.08,2.51.38,3.69-.3h0c.85-.03,1.7-.06,2.55-.08,4.13,0,8.26,0,12.39,0,0,0,0,0,0,0,0,0,0,0,0,0,.48.03.97.05,1.45.08,0,0,0,0,0,0,.87.67,1.87.24,2.81.32,0,0,0,0,0,0,0,0,0,0,0,0,1.61.29,3.2.79,5.08.68-1.32-3.31-3.4-6.14-4.02-9.55-.06-.1-.11-.21-.15-.32ZM796.73,500.46s0,0,0,0h0ZM813.83,561.27s-.04-.03-.06-.04c.02.01.04.02.06.04h0ZM884.37,557.76s.04-.03.06-.04c-.02.01-.04.03-.06.04h0ZM864.87,560.43h0s0,0,0,0h0ZM857.01,324.71h0s0,0,0,0Z"/>
          <path class="cls-4" d="M1019.26,350.37c1.23,2.06,2.1,2.37,3.79,1.62,2.83-1.25,5.4-2.91,8.03-4.51,1.26-.77,2.35-2.04,3.96-2.12,1.1-.06,1.92-.6,2.72-1.23,4.24-3.36,8.48-6.73,12.72-10.09.92-.12,1.44-.64,1.55-1.56.54-.65,1.08-1.3,1.62-1.96.8-.39.73-1.12.72-1.82,2.21-2.32,4.16-4.84,5.88-7.53.48-.67.61-1.32-.12-1.91,0,0,0,0,0,0-.52-.28-.77-.85-1.18-1.19-.98-.82-1.82-2.33-3.49-1.17,0,0,0,0,0,0,0,0,0,0,0,0-.72.38-.76,1.03-.66,1.72,0,0,0,0,0,0,0,0,0,0,0,0-1.91,2.74-3.35,5.85-6.06,7.95-2.35,1.83-4.32,4.02-6.39,6.13-.76.77-1.65,1.29-2.57,1.86-3.06,1.89-6.35,3.66-8.81,6.19-1.56,1.61-3.21,2.31-5.08,3.01-1.4-.7-2.52-.6-3.12,1.06-.51.42-1.04.81-1.63.93-.14-.13-.23-.18-.23-.22.55-2.89,2.67-4.83,4.19-7.17,3.05-4.68,6.58-8.94,10.18-13.18,3.27-3.86,7.65-6.35,11.39-9.61,1.34-1.17,3.03-2.65,5.26-2.22,1.71-.17,3.49.51,5.14-.41.8-1.06.38-1.9-.53-2.59-.58-.44-1.21-.81-1.81-1.21-.58-.77-1.4-.34-2.12-.4,0,0,0,0,0,0,0,0,0,0,0,0l-.12.04-.08-.09c-.57-.64-1.31-.32-1.99-.35-.6-.67-1.24-.56-1.91-.08-1.02-.14-1.63.95-2.63.85-.82.05-1.69-.32-2.43.3-2.48,1.42-5.22,2.31-7.64,3.92-2.5,1.67-5.13,3.31-6.51,5.96-.96,1.85-2.19,3.38-3.51,4.88-2.33,2.64-4.16,5.55-5.34,8.86-.85,2.39-1.42,4.77-1.66,7.37-.24,2.54-1.13,5.11-1.48,7.73-.31,2.28-.39,2.27,1.93,2.22Z"/>
          <path class="cls-4" d="M1064.64,401.12c-.82-4.95-4.75-7.96-7.42-11.74-1.56-2.2-3.44-4.15-5.46-6-2.1-1.92-4.41-3.56-6.48-5.52-1.92-1.81-3.52-4.36-6.75-4.19-.23.01-.5-.39-.71-.64-4-4.66-9.63-7.28-14.15-11.3-1.26-1.12-2.38-.76-3.19.7-.01.16-.03.32-.04.48-.94-.62-.78-2.3-2.28-2.36,0,0,0,0,0,0h0c-.74,1.53-.6,3.09-.11,4.65h0s0,0,0,0c.3,2.53.94,5.03,1.45,7.5.76,3.65,2.32,7.21,4.05,10.55,3.26,6.28,7.31,12,12.27,17.17,4.85,5.06,10.06,9.2,16.99,10.82.71.6,1.7.25,2.45.71,0,0,0,0,0,0,0,0,0,0,0,0,1.77-.58,2.73-2.59,4.78-2.69.59-.03.91-.4.96-1.01.05-.63-.1-1.09-.69-1.46-.9-.57-1.94-.66-2.89-1.04-4.46-1.79-9.18-2.97-13.01-6.18-6.57-5.52-11.85-12.08-16.26-19.41-2.55-4.24-5.06-8.48-6.34-13.05,6.14,1.46,9.74,6.93,15.03,10.07,4.99,2.96,9.67,6.88,13.51,11.5.34.4.77.78,1.33.7.95-.15,1.41.45,1.89,1.07,1.43,1.84,2.97,3.61,4.26,5.54,1.85,2.78,4.13,5.45,3.53,9.2-.05.34-.04.8.42,1,0,0,0,0,0,0,.65.5,1.3.52,1.94-.02,0,0,0,0,0,0,2.43-1.3,1.21-3.27.92-5.06Z"/>
          <path class="cls-4" d="M919.98,235.33c.62.29.81.68,1.09,1.14.21.68.42,1.36,1.15,1.68.14.33.28.66.42.99.83,1.44,1.85,2.69,3.48,3.3,1.61,1.22,3.49,1.68,5.44,1.95,1.16.57,2.31.73,3.44-.06,1.26.07,2.24-.31,2.7-1.59.84-.21,1.27-.74,1.21-1.63h0s0,0,0,0c0-.27.02-.53.31-.66.88-.44.93-1.23.86-2.06,0,0,0,0,0,0,0,0,0,0,0,0,.05-.62-.1-1.28.42-1.79.81-1.17.26-2.47.37-3.71,0,0,0,0,0,0l-.07-.09.07-.09c.64-.47.42-1.16.42-1.77.01-2.81,0-5.62-.01-8.42,0,0,0,0,0,0,0,0,0,0,0,0-.07-.13-.06-.24.04-.34.51-.8.66-1.57-.12-2.3h0c-.58-.21-.13-1-.69-1.22-.53-.77-1.12-1.15-1.9-.32-1-.14-1.64.29-1.96,1.23t0,0s0,0,0,0c.06.11.05.2-.05.28-.9.81-1.79,1.63-2.69,2.44.04.11.02.21-.07.29-1.02.18-1.58.99-2.28,1.61h0c-1.01.78-2.02,1.55-3.03,2.33h0c-.87.06-1.65.27-2.01,1.19-1.21.19-2.26.71-3.15,1.55-.62.91-1.98.61-2.57,1.57-1.25.05-1.88.77-2.13,1.92-.92,1.52.34,2.17,1.28,2.61Z"/>
          <path class="cls-4" d="M899.41,239.61c.04.52-.07,1.36.77,1.6,0,0,0,0,0,0,0,0,0,0,0,0,.19.28.39.56.58.83,1.29,1.39,2.59.95,3.89.02,1.76,0,3.16-.52,3.52-2.5.06-.35.34-.49.63-.67,1.33-.86,2.43-1.93,2.93-3.5.5-.64.49-1.29,0-1.93.06-1.71-1.48-2.14-2.44-3.03.04-.8-.34-1.22-1.15-1.26-1.8-.19-2.37-1.68-3.11-2.97-.61-1.08-1.25-1.43-2.6-.97-2.46.84-2.24,2.85-2.49,4.72-.61.58-.29,1.31-.33,1.98,0,0,0,0,0,0h0s0,0,0,0c0,0,0,0,0,0-.87,2.53-.42,5.12-.22,7.67Z"/>
          <path class="cls-4" d="M909.35,310.27c-.78.09-1.64-.3-2.34.33-.4-.01-.79-.02-1.19-.04-.95-.68-2.21.02-3.16-.68h0c-.77-.46-1.68-.71-2.3-.03-.73.8-.68,2.1-.54,3,.41,2.69,1.95,5.13,1.8,7.99-.02.41.47,1.2.77,1.23,1.32.11,1.25,1.15,1.52,1.97,1.43,4.36,2.84,8.73,4.26,13.09,0,0,0,0,0,0-.02,1,.08,1.97.81,2.75-.17.81.74,1.48.26,2.37-1.85,3.45-2.47,7.37-4.18,10.88-.65.26-.83.78-.79,1.42-.6.45,0,1.21-.43,1.71,0,0,0,0,0,0h0c-.52.65-.54,1.3.03,1.94h0c1.56,1.72,3.12,3.44,4.3,5.45.17.9.51,1.72,1.2,2.35l1.18,3.74c.22.84.85,1.31,1.56,1.71.7.73,1.45,1.55,2.43,1.71.92.15,1.26.62,1.4,1.35.23,1.21,1.02,2.12,1.59,3.14,1.01,1.35,2.15,2.58,3.58,3.51.23.13.47.26.7.39.38.68.88,1.24,1.61,1.56,3.51,2.97,7.02,5.95,10.53,8.92-.07.86.49,1.28,1.15,1.62l.08.1-.06.11c1,1.67,2.35,3,4,4.02.54,0,.81.35,1.04.76.92.8,1.67,1.81,2.79,2.38l.16-.02.15.06c1.31,1.42,2.56,2.94,4.7,3.11.75-.27,1.49-.54,2.24-.81.79-.18.88-.94,1.24-1.47h0c.15-.15.3-.3.45-.45,0,0,0,0,0,0,0,0,0,0,0,0,.43-.21.73-.58.83-1.02.86-3.54,2.19-6.99,2.21-10.71,0,0,0,0,0,0,0,0,0,0,0,0,.89-1.85,1.26-3.8,1.16-5.84.72-.55.35-1.31.37-1.99,0,0,0,0,0,0,0,0,0,0,0,0h0s-.01.03-.02.04c1.36-2.88.67-6.09,1.49-9.06.02-.06-.17-.18-.26-.27-.52-.9-1.03-1.79-1.55-2.69-.16-.86-1.17-.64-1.56-1.22.67-.55.32-1.29.37-1.96.69-.55.34-1.29.37-1.96.75-.58.33-1.39.39-2.1,0,0,0,0,0,0,0,0,0,0,0,0l-.05-.11.09-.09c.66-.55.33-1.3.38-1.97.69-.55.34-1.29.37-1.97.79-.65.31-1.54.41-2.32.74-.68.3-1.55.39-2.34.76-.73.3-1.64.37-2.48,0,0,0,0,0,0,0,0,0,0,0,0l-.06-.13.09-.1c.73-.76.28-1.68.35-2.53,0,0,0,0,0,0,0,0,0,0,0,0l-.06-.1.08-.09c.79-.89.29-1.95.37-2.93,0,0,0,0,0,0,0,0,0,0,0,0l-.06-.1.08-.09c.82-1.01.27-2.18.37-3.28,0,0,0,0,0,0,0,0,0,0,0,0l-.06-.13.09-.11c.79-.97.26-2.1.37-3.15.84-.98.26-2.14.38-3.21,0,0,0,0,0,0,0,0,0,0,0-.01-.09-.1-.07-.19.04-.27.74-.84.27-1.83.36-2.75.78-.82.29-1.82.38-2.74.81-.8.29-1.8.41-2.71.71-.61.32-1.4.36-2.12,0,0,0,0,0,0,0,0,0,0,0,0,.28-2.6.81-5.14,1.66-7.62,0,0,0,0,0,0,.48-.79.61-1.57-.11-2.31,0,0,0,0,0,0,0,0,0,0,0,0h0c-.33-.08-.39-.33-.39-.62-.08-.84.46-1.79-.41-2.5,0,0,0,0,0,0,0,0,0,0,0,0-.53-1.26-2.18-1.25-2.75-2.67-.97-2.39-1.71-4.75-1.49-7.35,0-4.35.01-8.7.02-13.05h0s0,0,0,0c-.07-.13-.05-.24.05-.34.66-.75.26-1.64.32-2.47,0,0,0,0,0,0,0,0,0,0,0,0-.08-.1-.06-.18.05-.25.7-.69.28-1.56.37-2.35.75-.7.29-1.6.38-2.4,0,0,0,0,0,0,0,0,0,0,0,0-.07-.12-.05-.23.06-.32.69-.87.24-1.88.32-2.82,0,0,0,0,0,0,0,0,0,0,0,0l.11-.69c.54-.59.26-1.3.29-1.97.85-.96.26-2.11.4-3.16,0,0,0,0,0,0,0,0,0,0,0,0,.04-.24.07-.48.11-.72.53-.62.24-1.35.27-2.04h0s0,0,0,0c.09-.5-.24-1.11.38-1.47.99-.38.84-1.19.77-1.98.76-.51.34-1.29.43-1.95-.02.02-.03.04-.04.06.01-.02.03-.04.04-.06.02-.45-.03-.91.06-1.35,1.53-7.05,3.48-13.99,5.7-20.86.75-.8.8-1.82.84-2.83,0,0,0,0,0,0,0,0,0,0,0,0,.07-.37-.11-.82.33-1.07.77-.26,1.26-.74,1.24-1.61t0,0h0c.34-.38.67-.76,1.01-1.13,0,0,0,0,0,0t0,0c1.56-.61,1.38-1.94,1.32-3.21,0,0,0,0,0,0,0,0,0,0,0,0v-.09c.36-1.52-.33-2.61-1.51-3.39-.94-.62-1.94-1.2-3.07-1.44-.9-1.17-2.41-.97-3.56-1.58-.65-.54-1.3-.56-1.95.02-1.28.47-2.88-.04-3.84,1.38-.9,1.32-1.97,2.53-2.79,3.9-4.31,7.17-7.16,15.03-10.42,22.68-1.96,4.61-3.26,9.49-5.09,14.18-2.07,5.28-4.62,10.34-6.65,15.63-1.9,4.94-3.62,9.97-7.06,14.15-.92,1.12-1.57,2.46-2.34,3.7h0c-1.46,1.14-2.76,2.44-3.9,3.9-1.27.92-2.54,1.84-3.81,2.76-1.45.17-2.46,1.12-3.54,1.96-1.27-.14-2.46.06-3.55.74ZM956.83,356.31s.03-.05.04-.07h0s-.03.05-.04.07ZM957.22,353.96s.02-.04.03-.06h0s-.02.04-.03.06ZM912.87,309.55h0s0,0,0,0c0,0,0,0,0,0Z"/>
          <path class="cls-4" d="M942.02,152.38h0c.49,4.29,4.64,6.89,8.63,7.7,1.28.26,2.4-.19,3.57-.39.69-.12,1.1-.78,1.14-1.6.04-.85-.23-1.37-1.14-1.41-.68,0-1.35,0-2.03,0h0c-1.32.2-2.28-.48-3.31-1.2-3.84-2.66-3.29-6.41-2.71-10.2.57-3.71,2.3-6.96,4-10.23.24-.46.94-1.15.03-1.63-.79-.42-1.53-.17-1.98.62-2.93,5.14-6.42,10.07-6.22,16.4-.43.65-.45,1.29.03,1.93Z"/>
          <path class="cls-4" d="M952.65,133.24s5.49,6.45,6.44,16.96-7.49,9.25-7.49,9.25c0,0-13.89,2.53-2.15-26.21h3.21Z"/>
        </g>
        <g>
          <path class="cls-1" d="M1053.54,466.71c-.19-2.69-1.02-5.29-.83-8.03.14-2.06-.18-4.14-1.07-5.99-4.29-8.91-7.97-18.11-12.54-26.89-.82-1.57-1.34-3.23-2.51-4.7-3.54-4.47-6.15-9.44-7.79-14.98-1.06-3.57-1.73-7.37-4.19-10.45-.73-.91-1.42-2.02-1.19-3.35-.06-.67.25-1.4-.3-2-.42-1.79-.78-3.59-1.27-5.35-.53-1.93-.63-4.07-2.46-5.77-.21,1.01-.48,1.66-.56,2.43-.28,2.78.16,5.52.33,8.27,0,.69.02,1.37.02,2.06,0,0,0,0,0,0h0c0,.99,0,1.97,0,2.96,0,1.5,0,3,.01,4.49,0,0,0,0,0,0,0,0,0,0,0,0-.01,8.36-.02,16.72-.03,25.08,0,4.05.28,8.06.83,12.08.24,1.77.89,3.4,1.2,5.14.48,2.68.44,5.39.91,8.07.62,3.49,1.82,6.8,2.54,10.24,1.17,5.64,2.79,11.13,4.74,16.54,1.42,3.94,3.43,7.57,5.56,11.19,3.72,6.3,6.7,13,9.74,19.66.02.03.03.05.04.08-.01-.03-.03-.06-.04-.08-.05.32,0,.71-.17.93-.34.45.44.94.97,1.14.68.26-.16-.26-.21-.92.56-2.08,1.13-4.15,1.69-6.23.55-.59.26-1.31.32-1.98.24-3.39.97-6.74,1.95-9.93,1-3.23,2.05-6.43,2.51-9.76.65-4.64,2.14-9.17,1.81-13.94Z"/>
          <path class="cls-1" d="M957.83,226.38h0c.66-1.81.25-2.61-1.37-3.27-1.42-.57-2.48.44-3.73.57-1.92-.86-3.58-2.37-5.85-2.34-.49-1.01-1.35-1.71-2.18-2.37-1.81-1.43-3.79-.94-4.37.97t0,0s0,0,0,0l.03.12-.1.08s0,0,0,0h0c-.73,2.01,0,3.91.45,5.83v-.02c-.66,2.24-.84,4.55-.84,6.87,0,.34.04.68.03,1.02-.06.32-.12.64-.19.96-.02.04-.04.08-.06.11-1.67,2.93-2.37,6.45-5.24,8.66-.13.12-.26.24-.39.37-3.25.95-6.17.38-8.71-1.91-.36-.26-.73-.52-.73-1.04.06-1.39-1-1.71-2-2.09-.63-.45-.93-1.1-1.12-1.81-.56-2.71-2.56-3.9-4.24-2.52t0,0h0c-.49.31-.97.65-1.31,1.1-1.58,1.05-3.44,1.47-5.31,1.89-.22.05-.4.32-.57.51-.46.49-.96.78-1.67.82-1.47.09-2.28.94-2.68,2.35-.51,1.79-1.97,2.23-3.52,1.11-.77-.56-1.58-.85-2.52-.73,0-1.96,0-3.93.01-5.89-.1-.88.3-1.61.64-2.37,1.12-.76,1.21-1.94,1.27-3.13,0,0,0,0,0,0,0,0,0,0,0,0l-.02.03s0,0,0,0c.6-1.15,1.41-2.29.05-3.46-.03-1.07-.7-1.25-1.57-1.15-.83-.8-1.42-.53-1.86.41-1.14-.03-1.3.67-1.15,1.59,0,0,0,0,0,0,0,0,0,0,0,0l.02-.03c-1.94,2.83-3.21,5.94-4.02,9.26-.5.29-.28.81-.4,1.22-1.16.74-2.44,1.39-2.33,3.09-.69,1.52-1.28,3.07-1.59,4.72-.59.7-1.08,1.44-1.07,2.41-1.21.44-1.3,1.68-1.78,2.61-1.51,2.91-3.08,5.8-3.7,9.08-.76.47-.89,1.18-.76,1.99,0,0,0,0,0,0,0,0,0,0,0,0l.02-.03c-1.94,3.11-2.65,6.67-3.62,10.13-.42.71-.68,1.48-.78,2.31-.82.92-1.18,1.99-1.09,3.21-.83.74-.94,1.69-.8,2.72-1.19,1.28-.91,3-1.06,4.48-.27,2.62-.64,5.32.23,7.93l.09.11-.07.13s.03.07.04.11c-.01-.04-.03-.08-.04-.11.09,1.09-.43,2.25.35,3.27.37.63-.39,1.47.39,2.02-.09,1.77.4,3.65,2.26,3.71,3.54.12,6.06,2.28,8.95,3.7,1.03.51,1.7,1.21,1.77,2.53.05.95.61,1.85,1.74,2.07.97.19,1.94.41,2.43-.81,1.84-.69,2.21-2.23,2.29-3.94l.09.07-.07-.07c1.82.67,4.34.38,4.57,3.29,0,.1.42.16.65.24,1.02,3.02,4.65,3.7,7.13,1.2,1.34-1.35,2.73-1.83,4.61-1.64,1.02.1,2.36.15,3-1.15.09-.33.36-.35.63-.36,1.17.02,1.73-.7,2.08-1.69,0,0,0,0,0,0,.38-.34.77-.68,1.15-1.02h0s0,0,0,0c.74.05,1.43.02,1.58-.92h0c.48-.35.96-.7,1.44-1.06.88-.21,1.36-.74,1.29-1.67h0c.13-1.2,1.37-1.15,2-1.79,1.13.01,1.88-.38,1.87-1.65,1.28-.65,1.59-1.79,1.58-3.1.8-.45.91-1.16.77-1.98,0,0,0,0,0,0,0,0,0,0,0,0l-.02.03c1.63-2.21,3.23-3.94,3.52-6.57,2.48-2.12,1.73-6.13,3.68-8.55.21-.43-.02-1.22.19-1.65.26-.17.74-.34.74-.52,0-2.39,1.67-1.92,1.69-4.3,0,0,.18-1.51.18-1.51,0,0,.5-.18.5-.18l-.18-.79c1.57-2.68,2.21-5.16,2.78-8.2,1.08-.67.29-2.58,1.11-3.44,1.91-2.02,2.14-4.69,2.61-7.25,0,0,0,0,0,0,0,0,0,0,0,0l-.02.04c1.38-2.78,2.6-5.62,4.32-8.24.54-.83.98-1.95.79-3.1,1.33-.48,1.07-2.11,2.27-2.9,3.05-2.01,3.69-5.56,4.83-8.75ZM894.48,305.53s0,0,0,0c0,0,0,0,0,0h0ZM894.48,305.52h0s0,0,0,0c0,0,0,0,0,0ZM894.48,305.52s0,0,0,0h0s0,0,0,0ZM915.01,237.09c.07-.04.13-.08.2-.12-.06.05-.12.09-.2.12ZM940.71,225.98s0,0,0,0h0s0,0,0,0ZM928.82,292.28s0,0,0,0c0,0,0,0,0,0h0Z"/>
          <path class="cls-1" d="M903.9,226.43h0c-.02,1.4.89,1.6,2,1.54h0c.65.55,1.31.56,1.96,0l-.04-.06s.01,0,.02-.01c0,.03.02.05.02.08,2.05-.5,2.41-1.81,1.19-4.31l-.13.1s-.02-.03-.03-.05c.05-.02.11-.04.16-.06-.2-.83-.42-1.58-1.35-1.96-1.21-.49-2.34-.5-3.2.5-1.06,1.24-1.55,2.67-.59,4.24,0,0,0,0,0,0ZM905.91,227.9s.01,0,.02.01c0,0-.04.05-.04.06,0-.02.01-.05.02-.07Z"/>
          <path class="cls-1" d="M879.68,242.74c.71-.3,1.24-.73,1.15-1.6,1.23-1.19,1.09-2.92-.31-3.81-2.01-1.27-3.83-.36-4.7,2.36-1.04,2.29-3.62,3.23-4.77,5.43-1.14.04-2.29.06-2.65,1.49-.55.67-1.1,1.35-1.65,2.02-1.82.84-2.91,2.47-4.2,3.88-.15.14-.3.27-.44.41-.93.45-2.27.17-2.68,1.52-.26.27-.52.55-.77.82-.54.25-.93.65-1.18,1.18h0,0c-.28.26-.56.51-.84.77h0,0c-.95.13-1.43.85-1.89,1.57-.62.58-1.27,1.13-1.6,1.95-1.16.77-.79,1.73-.36,2.71-.77,1.05-1.53,2.09-2.3,3.14,0,0,0,0,0,0-.64.31-1.15.73-1.22,1.51h0c-.26.28-.52.56-.78.84-1.19.9-2.27,1.9-3.1,3.15-1.12.13-1.71.82-1.98,1.86-.63.67-1.26,1.34-1.9,2.01-.88.57-1.75,1.15-2.01,2.28-.5.54-1,1.09-1.5,1.63h0c-.65.3-1.16.72-1.23,1.5-.26.28-.51.57-.77.85-.61.32-1.12.73-1.18,1.49h0c-.26.28-.52.57-.78.85-.61.33-1.12.74-1.17,1.5-1.78,2.08-3.43,4.24-4.67,6.7-.91.7-.8,1.7-.8,2.67-.24.28-.48.56-.73.84-.65.31-1.16.73-1.23,1.51-.25.28-.49.56-.74.83-.64.32-1.16.74-1.21,1.52-1.46,1.73-2.83,3.52-3.92,5.51-.38.46-1.03.85-.38,1.56-.78,1.43-1.57,2.86-2.35,4.3-.76.42-1.02,1.14-1.15,1.94-.93,1.7-1.86,3.39-2.79,5.09-1.06,1.05-1.68,2.32-1.9,3.78-.87,1.21-1.25,2.61-1.62,4.02-1.43-.05-2.43.46-2.6,2.02-.72.48-.85,1.29-.83,2.01.07,2.18,0,4.41.52,6.5.31,1.24.43,3,2.19,3.51.14,1.09,1.03.9,1.62.76,1.69-.39,3.19-.04,4.62.81,1.18,1.32,2.75,1.12,3.8-.48,1.33-.2,1.12-1.03.79-1.92.98-1.21.32-2.59.42-3.9.85-.69.32-1.62.41-2.45,0,0,0,0,0,0,0,0,0,0,0,0l-.05-.13.1-.1c.65-.56.32-1.3.36-1.97.69-.55.34-1.29.37-1.96.74-.57.34-1.36.38-2.06,0,0,0,0,0,0,0,0,0,0,0,0l-.05-.14.1-.11c.64-.56.3-1.3.38-1.97.92-.63,1.39-1.94,1.96-2.93,3.09-5.33,5.22-10.86,8.88-15.82,1.16-.8,2.96-.85,3.22-2.72,3.76-6.38,8.34-12.19,12.44-18.34.63-.06,1.48.33,1.62-.76.77-.02,1.16-.42,1.17-1.18,2.35-4.17,5.68-7.65,8.31-11.62,3.15-4.77,8.93-8.51,11.79-13.53,2.34-4.1,4.52-8.85,5.9-12.36,1.03-.72,2.24-1.27,2.48-2.71Z"/>
          <path class="cls-1" d="M1018.74,338.73s0,0,0,0c0,0,0,0,0,0,.03-.5.07-1,.1-1.5,0,0,0,0,0,0h0c.58-.75.22-1.62.28-2.43.14-1.36.69-2.59,1.25-3.81,0,0,0,0,0,0,0,0,0,0,0,0,.61-.39,1.04-.82.42-1.55l-.11-1.07c0-1.12,0-2.24,0-3.36h0c.04-1,.08-2,.12-3,.64-1.56.19-3.18.28-4.77.17-1.53.34-3.07.5-4.6,0,0,0,0,0,0,.54-.63.24-1.36.27-2.06,0,0,0,0,0,0,0,0,0,0,0,0,.03-.87.07-1.75.1-2.62.66-1.03.22-2.16.29-3.24,0,0,0,0,0,0,0,0,0,0,0,0,.13-1.36.27-2.73.4-4.09-.09-1.33.35-2.69-.29-3.98-.17-1.65-.33-3.31-.5-4.96-.06-.82.33-1.7-.31-2.45-.39-4.1-1.15-8.05-3.12-11.78-2.16-4.09-3.76-8.51-7.11-11.84-3.24-3.22-6.09-6.77-10-9.42-4.64-3.14-8.64-7.21-13.04-10.73-4.28-3.42-8.52-6.86-12.13-11.03-1.78-2.06-4.13-1.83-5.15.63-.78,1.87-1.43,3.82-2.16,5.73-1.31,3.46-1.98,7.11-3.09,10.61-1.38,4.37-2.52,8.8-3.66,13.23-.67.86-.23,1.85-.33,2.78.07.13.05.24-.06.34-.7,1.14-.23,2.39-.32,3.59-1.83,7.52-3.9,15-3.89,22.83,0,1.64,0,3.28,0,4.91,0,0,0,0,0,0,0,0,0,0,0,0-.32,2.84.57,5.61.44,8.44-.04.99.72,1.41,1.4,1.92.94.69,1.93,1.35,2.51,2.4,1.77,3.19.85,6.61.43,9.83-.22,1.69-1.17,3.48-1.62,5.26-.81,3.25-1.36,6.56-1.64,9.9-.35,4.17-.55,8.35-1.23,12.49-.65.87-.22,1.86-.31,2.78-.29,1.41-.58,2.83-.88,4.24-.55.63-.26,1.37-.27,2.07,0,0,0,0,0,0,0,0,0,0,0,0-.69,3.21-2.08,6.22-2.42,9.57-.27,2.7,1.93,2.71,3.19,3.72,1.12.9,1.14-.8,1.83-1.03.29-.1.57-.25.88-.32,1.9-.41,3.81-.8,5.71-1.19,1.22-.06,2.48.37,3.66-.28.35-.03.71-.07,1.06-.1.98,0,1.97,0,2.95,0,0,0,0,0,0,0,0,0,0,0,0,0,3.05-.2,5.9,1.03,8.89,1.28.58.55,1.3.25,1.96.31,3.4,1.25,6.83,2.43,10.2,3.77,4.09,1.63,7.52,4.33,10.74,7.26,1.38,1.25,3.36,1.75,4.31,3.57.2.39,1.03.46,1.09-.34.19-2.36,1.92-4.16,2.23-6.46.62-.9.22-1.89.27-2.85,0,0,0,0,0,0,0,0,0,0,0,0-.09-1.72.49-3.32.89-4.96.56-.62.26-1.36.29-2.06,0,0,0,0,0,0,0,0,0,0,0,0,.03-.22.06-.45.09-.67.69-1.57.22-3.22.29-4.82-.06.37-.12.74-.17,1.11.02-.37.07-.74.17-1.11.07-.77.02-1.57.24-2.29,1.05-3.44,1.81-6.94,2.6-10.45.6-.77.23-1.66.28-2.49,0,0,0,0,0,0h0c-.06-1.83.24-3.6.88-5.31.68-1.14.2-2.38.31-3.57Z"/>
        </g>
        <g id="shadow" class="cls-7">
          <path class="cls-2" d="M963.99,480.35c-1.49-.49-2.67-1.21-3.59-2.43-1.22-1.66-2.67-3.1-4.32-4.32,0,0,0,0,0,0,0,0,0,0,0,0-.49-.28-.88-.66-1.13-1.17-.03-.81-.52-1.26-1.21-1.56,0,0,0,0,0,0,0,0,0,0,0,0-.12-.13-.24-.25-.36-.38-.02-.82-.52-1.27-1.21-1.57,0,0,0,0,0,0,0,0,0,0,0,0-.25-.26-.49-.52-.74-.77-.02-.82-.52-1.27-1.21-1.56,0,0,0,0,0,0,0,0,0,0,0,0-.49-.28-.88-.66-1.12-1.17-.03-.81-.52-1.26-1.21-1.56,0,0,0,0,0,0,0,0,0,0,0,0-.12-.12-.24-.25-.36-.37,0-.83-.51-1.28-1.21-1.58,0,0,0,0,0,0,0,0,0,0,0,0-.12-.13-.23-.25-.35-.38,0-.82-.52-1.26-1.19-1.58,0,0,0,0,0,0,0,0,0,0,0,0-.25-.38-.51-.76-.76-1.14,0-.83-.51-1.27-1.19-1.59,0,0,0,0,0,0,0,0,0,0,0,0-.48-.23-.75-.6-.76-1.14,0-.83-.51-1.26-1.18-1.59,0,0,0,0,0,0,0,0,0,0,0,0-2.92-3.77-5.57-7.73-8.08-11.79-3.24-5.22-7.1-10.07-9.68-15.68-2.63-5.72-5.52-11.3-8.34-16.92-2.41-4.81-4.56-9.76-7.38-14.35-2.07-3.36-4.48-6.54-5.68-10.35-.75-2.38-2.16-4.41-3.21-6.62-.58-1.22-1.52-1.68-2.82-1.49-1.31-.23-.93-1.64-1.6-2.32,0,0,0,0,0,0,0,0,0,0,0,0-1.08-.68-2.29-.3-3.44-.39-.79.11-1.65-.32-2.35.36,0,0,0,0,0,0-1.74.09-3.35.5-4.97,1.25-2.7,1.25-5.53.84-8.27-.11-.76-.26-1.48-.31-1.84.45-.31.66-.16,1.4.47,1.93.3.25.56.55.9.73,2.12,1.11,4.32,1.99,6.7,2.39.69.71,1.57.27,2.36.38,0,0,0,0,0,0,0,0,0,0,0,0,.24.13.48.26.72.38,1.7-.18,3.45.47,5.1-.36h0c.25,0,.51-.01.76-.02,1.17-.15,2.42.39,3.53-.37,0,0,0,0,0,0,.55-.17,1.38-.17,1.62-.55,1.47-2.28,1.62-.12,2.1.61.31.47.41,1.08.57,1.64,2.2,7.5,4.78,14.85,8.58,21.72.09.64-.24,1.36.37,1.9,0,0,0,0,0,0,.93,5.58,3.31,10.7,5.08,16.01,1.11,3.32,3.5,5.97,4.55,9.32,1.3,4.14,3.04,8.1,5.26,11.86,1.24,2.09,2.59,4.1,3.41,6.48.58,1.69,1.24,3.5,2.49,4.98,1.88,2.21,3.54,4.62,5.45,6.8,1.91,2.18,3.37,4.8,5.77,6.5,3.25,2.3,6.06,5.29,10.04,6.47.33.1.59.49.86.78,3.37,3.72,7.67,6.27,11.63,9.26.9.68,2.11,1.07,2.91.57,1.11-.7,2.02-.61,3.13-.33.61.15,1.37.13,1.7-.6.31-.68,0-1.25-.51-1.74-1.37-1.34-2.99-2.35-4.76-2.94Z"/>
          <path class="cls-2" d="M780.47,277.61c-.37,4.25-2.09,8.05-3.68,11.92-1.59,3.89-2.47,8.02-3.68,12.03-1.85,6.11-3.82,12.17-5.69,18.28-1.32,4.31-1.58,8.85-2.73,13.21-.56,2.12-1.21,4.22-1.17,6.44-.7.69-.27,1.57-.38,2.35,0,0,0,0,0,0,0,0,0,0,0,0,0,.13,0,.25-.01.38-.7.7-.27,1.57-.37,2.36,0,0,0,0,0,0,0,0,0,0,0,0l-.03,1.15c-.72.83-.23,1.83-.37,2.74,0,0,0,0,0,0,0,0,0,0,0,0-.02,1.05-.59,2.03-.4,3.1-.74.83-.24,1.83-.38,2.75,0,0,0,0,0,0,0,0,0,0,0,0-.37.51-.33,1.03-.03,1.55-.61,2.59-.62,5.19,0,7.78,0,0,0,0,0,0,.05.8-.06,1.62.38,2.36-.74,1.11-.21,2.35-.36,3.52,0,0,0,0,0,0,0,0,0,0,0,0,0,.63,0,1.27,0,1.9.18,1.69-.45,3.44.36,5.08h0c-.35.52.02,1.03.03,1.55.08.66-.26,1.4.36,1.96.37,2.95,1.52,5.71,2.21,8.58.34,1.42.7,2.87,1.46,4.19,1.46,2.52,2.87,5.07,4.19,7.66,1.14,2.24,2.24,2.64,4.64,1.84,1.67-.56,2.55-2.68,5.07-1.92-1.07-.98-1.98-.86-2.76-1.16-1.43-.56-2.15-1.59-2.18-3.04-.01-.64-.3-1.09-.5-1.63-1.97-5.34-3.69-10.75-4.33-16.44-.14-.91.36-1.91-.38-2.74h0c0-.38-.01-.77-.02-1.15-.18-1.43.44-2.93-.37-4.31,0,0,0,0,0,0,0-.38-.01-.77-.02-1.15h0c-.15-1.3.4-2.67-.37-3.91,0,0,0,0,0,0,0-.77-.01-1.55-.02-2.32,0,0,0,0,0,0,0-.92,0-1.85,0-2.77,0,0,0,0,0,0,0,0,0,0,0,0,0-.64.01-1.29.02-1.93.76-.97.22-2.09.37-3.13,0,0,0,0,0,0,0,0,0,0,0,0,0-.25.01-.51.02-.76.69-.69.26-1.57.37-2.35,0,0,0,0,0,0,0,0,0,0,0,0l.02-.77c.63-.56.29-1.3.37-1.96,0,0,0,0,0,0,0,0,0,0,0,0-.13-1.32.16-2.6.42-3.89.62-.56.28-1.3.36-1.96,0,0,0,0,0,0,0,0,0,0,0,0,.01-.39.02-.78.03-1.16.62-.56.28-1.3.36-1.96,0,0,0,0,0,0,0,0,0,0,0,0,.01-.52.02-1.03.03-1.55.62-.56.28-1.3.36-1.96,0,0,0,0,0,0,0,0,0,0,0,0,0-.38.02-.77.03-1.15.68-.7.26-1.57.37-2.35,0,0,0,0,0,0,0,0,0,0,0,0-.09-1.89.35-3.72.64-5.57,1.04-6.63,2.57-13.16,4.06-19.69,1.96-8.55,2.68-17.31,4.54-25.88.4-1.85,1.3-3.87.15-6.27-.45.94-.95,1.54-1,2.17Z"/>
          <path class="cls-2" d="M800.96,83.81c1.43.58,2.86.63,4.28-.03h0s0,0,0,0c5.08-1.6,9.16-4.6,12.55-8.69,4.72-5.69,7.22-12.35,8.87-19.4,2.38-10.14,4.79-20.25,10.04-29.42,3.08-5.38,6.7-10.19,11.67-14.05,3.91-3.04,8.29-5.21,12.5-7.71.38-.22,1.02-.27,1.03-.78.01-.72-.74-.56-1.17-.75-.29-.13-.61-.2-.92-.3h0c-.91-.55-1.81-.61-2.71.04-.67-.05-1.26.05-1.56.76-.94.08-1.59.74-2.34,1.19-.78.12-1.64-.31-2.33.36,0,0,0,0,0,0-1.39-.17-2.59.56-3.89.82-.67-.05-1.27.04-1.58.75h0c-.39.14-.78.28-1.16.42h0c-.66-.04-1.26.05-1.56.75,0,0,0,0,0,0-2.65,1.66-5.29,3.33-7.95,4.97-.73.45-1.36.96-1.8,1.69-.63.34-1.14.76-1.18,1.55-1.81,1.89-3.08,4.12-3.79,6.62-.26.92-.44,1.82-.95,2.68-3.36,5.71-5.5,11.86-6.57,18.39-.65.55-.3,1.3-.38,1.96,0,0,0,0,0,0,0,0,0,0,0,0,0,.13,0,.25-.01.38-.77,1.1-.21,2.35-.38,3.51,0,0,0,0,0,0,0,0,0,0,0,0-1.42,3.33-2.18,6.87-3.2,10.33-1,3.39-1.48,7.06-3.43,10.04-2.99,4.57-6.15,9.06-11.79,10.91-1.89.62-1.89,1.82-.29,3.04Z"/>
          <path class="cls-2" d="M910.32,230.55c.05.55,1.01,1.72,1.64,1.07,1.22-1.26,2.15-.47,3.23-.08.64.57,1.28.56,1.94.02,0,0,0,0,0,0,.91.51,1.68.18,2.17-.58.51-.79-.3-1.33-.7-1.84-.64-.82-1.84-1.07-1.98-2.43-.26-2.55-.99-5.04-1.04-7.63-.08-.67.27-1.41-.37-1.97,0,0,0,0,0,0,0-.25-.01-.5-.02-.76-.08-.66.27-1.41-.36-1.97,0,0,0,0,0,0,0-.39-.02-.77-.03-1.16-.15-1.04.39-2.16-.37-3.13t0,0c0-.39-.01-.77-.02-1.16-.16-1.04.38-2.16-.36-3.13,0,0,0,0,0,0,0-.52-.02-1.03-.03-1.55-.15-1.04.38-2.16-.36-3.13,0,0,0,0,0,0-.01-.64-.02-1.29-.03-1.93-.15-1.04.37-2.15-.35-3.13,0,0,0,0,0,0,0-.45-.09-.93,0-1.36,1.4-6.35,2.15-12.82,3.73-19.13.47-1.87.49-3.83,1.23-5.65.17-.41.23-.98-.12-1.3-.37-.34-.8.04-.95.35-.73,1.55-2.28,2.26-3.43,3.37-4.55,4.41-8.7,9.25-13.83,13.05-1.29.96-2.8,1.68-3.76,3.02-.65.91-1.12,1.42.21,2.74,2.42,2.43,5.35,4.6,6.35,8.3,1.05,3.85,1.98,7.71,2.77,11.62.37,1.87.15,4.13,1.45,5.5,1.23,1.29,1.28,2.53,1.25,4,.12.91-.35,1.9.35,2.74,0,0,0,0,0,0-.32,2.62,1.56,4.71,1.79,7.22Z"/>
          <path class="cls-2" d="M859.92,57.01c-1.95,2.87-4.5,5.53-5.35,8.88-.6,2.35-1.9,3.89-3.24,5.64-1.39,1.82-2.53,3.75-3.41,5.97-1.08,2.72-1.89,5.96-5.04,7.53-.98.49-1.78,1.54-2.42,2.49-2.85,4.2-6.97,6.26-11.79,7.17-1.43.27-1.87.95-1.42,2.31.38,1.16.98,2.26,1,3.53-.05.92.16,1.88-.39,2.72h0c-1.11.71-.98,1.51-.19,2.37.79.86,1.76,1.23,2.92,1.17,1.56.6,3.11.61,4.67,0,0,0,0,0,0,0,2.11-.53,4.28-.84,6.2-1.98,1.43-.39,2.31-1.34,2.77-2.72h0s0,0,0,0c.37-.6.77-1.19,1.09-1.81.64-1.24,1.35-2.43.9-3.98-.41-1.42-1.32-1.84-2.55-1.03-.47.31-.84.97-1.76.77.67-1.49.9-2.99,1.19-4.48.53-.64.53-1.29-.01-1.92,0,0,0,0,0,0,.03-.32-.07-.75.1-.94,2.01-2.18,2.67-5.17,4.87-7.33,4.32-4.25,8.49-8.66,12.93-12.8,1.18-.2,1.77-1.08,2.34-1.99,0,0,0,0,0,0,0,0,0,0,0,0,2.22-2.28,4.78-4.09,7.67-5.42.63-.29,1.22-.61,1.24-1.33.02-.73-.55-1.11-1.19-1.36-1.66-.66-3.33-1.33-4.99-2-.7-.67-1.56-.25-2.34-.36,0,0,0,0,0,0,0,0,0,0,0,0-1.3.17-2.83-.52-3.79.89Z"/>
          <path class="cls-2" d="M982.25,176.58c1.28-1.4.71-2.39-.67-3.28-2.64-1.7-4.97-3.61-5.21-7.13-.08-1.1-.06-2.54-1.16-3.15-1.37-.75-1.96-1.98-2.71-3.17-.7-1.12-1.22-2.41-2.9-2.57-.62-.06-1.05-.84-1.39-1.51-1.31-2.54-2.34-5.17-2.76-8-.58-3.92-4.04-6.18-5.47-9.61-.24-.56-.95-.7-1.55-.48-.88.32-.68,1.14-.72,1.83.11.78-.31,1.65.35,2.35,0,0,0,0,0,0,.01.39.03.77.04,1.16.08.66-.27,1.4.36,1.97,0,0,0,0,0,0,0,.26.02.51.02.77.08.66-.26,1.4.36,1.96,0,0,0,0,0,0,.12.83-.02,1.65.26,2.5.55,1.66,1.74,3.54-.97,4.55-.14.05-.23.32-.28.5-.63,2.16-1.12,4.29.34,6.38.59.84.96,1.84,1.43,2.76,3.42,6.59,8.61,11.4,15.11,14.84,2.7,1.43,4.31,1.17,6.35-.71h0c1.29-.1,1.17-1.05,1.17-1.93h0Z"/>
          <path class="cls-2" d="M847.34,373.43c-1.17-.67-2.33-.64-3.51-.02h0s0,0,0,0c-1.31.61-2.41.03-3.28-.81-1.52-1.46-3.32-2.55-4.91-3.9-.91-.56-1.82-.62-2.72.05h0,0c-.31.52-.75,1.07-1.33.55-.56-.51-.12-1.18.17-1.74.55-.66.6-1.31-.04-1.94h0s0,0,0,0c-.64-.52-.13-1.05-.04-1.59.17-1.03-.26-1.82-1.24-2.14-1.09-.35-1.78.31-2.07,1.25-1.46,4.63-4.13,8.61-6.75,12.6-3.2,4.88-6.72,9.47-11.33,13.16-3.03,2.43-6.05,4.82-9.39,6.8-1.07.63-2.73,1.32-1.1,3.05.77.59,1.55.58,2.33.01,0,0,0,0,0,0,2.71-1.25,5.13-2.96,7.53-4.68.8-.57,1.5-1.31,2.55-1.18,1,.12,1.82-.24,2.47-.86,1.48-1.42,3.29-2.44,4.5-4.2,1.15-1.68,2.63-3.14,3.97-4.7.49-.34,1.21-.23,1.59-.8,0,0,0,0,0,0,0,0,0,0,0,0,1.13-1.32,2.23-2.67,2.93-4.28.85-1.95,1.7-3.89,2.55-5.83.25-.13.5-.26.76-.39.13.51.27,1.03.4,1.54.15,1.04-.39,2.16.37,3.13,0,0,0,0,0,0-.37.44-.68.96-1.12,1.3-.76.59-1.44,1.11-.8,2.21.72,1.25,1.62.69,2.5.3,4.15-1.84,8.5-2.94,12.99-3.39,2.44-.24,4.31-1.61,6.76-2.43-1.77-.83-3.54.51-4.72-1.09Z"/>
          <path class="cls-2" d="M1061.38,405.8c-1.5-.9-3.13-.22-4.69-.42,0,0,0,0,0,0,0,0,0,0,0,0-2.08.21-3.93-.56-5.79-1.34-7.44-3.11-12.84-8.64-17.51-14.95-2.56-3.47-5.27-6.89-6.58-11.13-1.45-4.69-3.24-9.28-4.08-14.15-.15-.86-.57-1.61-1.5-1.86-.83-.23-1.38.09-1.58.94,0,0,0,0,0,0h0s0,0,0,0c-.03.05-.06.11-.08.17-.22.45-.45.91-.67,1.36-1.1.64-.82,1.64-.65,2.59.66,3.56,1.81,6.99,3.1,10.35.61,1.6.76,3.72,2.24,4.6,1.39.83,1.92,1.99,2.57,3.2.86,1.59,1.66,3.22,2.52,4.82,2.77,5.18,7.35,8.82,11.16,13.11.21.24.47.49.75.6,3.55,1.35,6.01,4.6,9.87,5.49,1.27.29,2.29,1.82,3.67.25.12-.14.57-.19.73-.08,1.94,1.34,3.62.35,5.4-.43,1.59-.7,2.13-1.58,1.13-3.13Z"/>
          <path class="cls-2" d="M964.54,383.07c.44-3.37,1.49-6.68.62-10.15-.21-.83-.59-1.24-1.34-1.42-2.84-.67-4.81.65-5.35,3.52-.33,1.77-.74,3.52-1.09,5.28-1.07,5.48-2.61,10.88-2.85,16.51-.68.84-.22,1.83-.34,2.74,0,0,0,0,0,0,0,0,0,0,0,0,.03,1.46.23,3.4-.91,4.09-1.69,1.01-1.24,1.9-.73,3.13.47,1.14,1.07,2.13,1.93,3.05,1.08,1.16,2.19,2.34,2.89,3.83.27.57.35,1.54,1.39,1.26.86-.23,1.17-.95,1.25-1.77.05-.51.04-1.03.06-1.55.6-.56.26-1.29.35-1.94h0s0,0,0,0c.01-.52.03-1.04.04-1.56.6-.57.27-1.3.33-1.97,0,0,0,0,0,0,0,0,0,0,0,0,.1-7.87,2.74-15.32,3.76-23.04Z"/>
          <path class="cls-2" d="M877.59,357.76c0,.43.47.92.83,1.27,1.33,1.34,2.41,2.86,3.59,4.32.79.99,1.6,2.12,3.17,1.89.66.53,1.31.6,1.93-.07,0,0,0,0,0,0,0,0,0,0,0,0,.85-.65,1.39-.45,1.68.57.14.5.32.98.51,1.46.32.81.84,1.33,1.79,1.04.87-.27,1.39-.62,1.16-1.8-.22-1.15-.39-2.3-.95-3.32-1.82-3.29-4.64-5.67-7.42-8.09-3.2-2.78-7.21-4.51-10.02-7.79-.06-.78-.55-1.22-1.22-1.51,0,0,0,0,0,0,0,0,0,0,0,0-3.2-3.69-7.82-6.35-8.43-11.91-.43-3.9-2.8-7.4-2.44-11.48-.12-.79.36-1.68-.41-2.35,0,0,0,0,0,0,0,0,0,0,0,0-.85-.34-1.76-1.02-2.32.39-.63.56-.29,1.3-.37,1.95,0,0,0,0,0,0,0,0,0,0,0,0,0,.13,0,.26-.03.39-.58.9-.58,1.81,0,2.71,0,0,0,0,0,0,.13.69.21,1.4.41,2.08.85,2.88,2.5,5.4,3.73,8.11.28.62.9,1.25.28,1.96-.9,1.04-.3,1.88.23,2.81,1.03,1.81,2.35,3.4,3.63,5.02,2.25,2.84,4.34,5.85,7.29,8.02,1.55,1.14,3.39,1.93,3.39,4.3Z"/>
          <path class="cls-2" d="M958.6,303.31c-.2-.47-.62-.85-1.22-.78-.53.06-.68.47-.85.92-.49,1.33-1,2.64-.83,4.09-.65.7-.24,1.56-.35,2.34,0,0,0,0,0,0,0,0,0,0,0,0-.01.78-.03,1.56-.04,2.34-.71.97-.2,2.08-.35,3.12,0,0,0,0,0,0,0,0,0,0,0,0-.01,1.17-.03,2.34-.04,3.5-.76,2.05-.17,4.17-.35,6.25,0,0,0,0,0,0,0,0,0,0,0,0v15.55c.05.09.09.18.12.27-.04-.09-.07-.18-.12-.27,0,2.13-.08,4.26.01,6.39.06,1.51-.42,3.08.34,4.54,0,0,0,0,0,0,.07.54.24,1.01.86,1.11.59.09.82-.38.93-.79.61-2.3,1.17-4.61,1.75-6.92-.15-1.06.07-1.94,1.18-2.37,0,0,0,0,0,0,0,0,0,0,0,0,.14-.26.28-.52.41-.78h0c.6-2.07.6-4.14,0-6.22,0,0,0,0,0,0-.01-1.04-.02-2.07-.03-3.11.09-1.83-.23-3.69.4-5.48h0s0,0,0,0c.78-.98.23-2.1.37-3.15,0,0,0,0,0,0,0,0,0,0,0,0,.76-.74.87-1.68.79-2.67-.07-.66.26-1.4-.35-1.96-.01-.9-.03-1.81-.04-2.71-.1-.79.31-1.65-.35-2.35,0,0,0,0,0,0,.05-1.3-1.55-1.73-1.57-2.95-.04-2.14-1.18-4.2-.44-6.42.14-.43-.02-1.04-.22-1.49Z"/>
          <path class="cls-2" d="M937.8,53.77c.63.94,1.41,1.72,2.35,2.34,0,0,0,0,0,0h0c.67.95,1.4,1.86,2,2.85,3.32,5.39,6.65,10.79,10.53,15.76,3.48,4.45,6.06,10.1,12.52,11.36.4.08.81.66,1.18.22.41-.48-.18-.81-.48-1.08-2.42-2.18-4.33-4.78-6.22-7.41-3.06-4.27-5.75-8.72-7.08-13.87.03-.78-.11-1.49-.82-1.97,0,0,0,0,0,0,0,0,0,0,0,0-.3-.17-.34-.46-.35-.77,0-.98-.23-1.85-1.19-2.35,0,0,0,0,0,0,0,0,0,0,0,0-.9-1.43-1.8-2.85-2.71-4.28,0,0,0,0,0,0,0,0,0,0,0,0-.19-1.11-.85-1.76-1.95-1.97,0,0,0,0,0,0,0,0,0,0,0,0-1.62-1.31-3.53-2.05-5.46-2.75-.78-.57-1.55-.57-2.33,0,0,0,0,0,0,0-2.07.97-2.07,2.12,0,3.91Z"/>
          <path class="cls-2" d="M895.37,229.65c1.42-1.84,1.16-2.04-1.42-2.28-.59-.23-.99.08-1.37.46-2.42,2.42-4.91,4.78-7,7.52-3.44,4.53-5.75,9.79-9.24,14.3-2.76,3.57-5.33,7.29-7.96,10.96-.52.73-1.2,1.58-.45,2.45.76.89,1.31-.06,1.95-.42,3.3-1.85,5.22-5.26,8.22-7.35,3.02-2.11,5.1-4.91,7.07-7.84,3.81-5.69,5.97-12.32,10.21-17.79Z"/>
          <path class="cls-2" d="M1019.11,154.96c.1-1.18-1.03-1.31-1.75-1.78-.5-.29-.56-1.03-1.2-1.17-.62-1.04-1.42-1.04-2.33-.39,0,0,0,0,0,0,0,0,0,0,0,0-1.92.83-3.5,2.17-5.15,3.4-4.18,3.13-8.27,6.38-13.56,7.5-.66.09-1.41-.27-1.96.4h0s0,0,0,0c-.59.38-1.24.43-1.92.39-.67.08-1.42-.28-1.98.38-.91.14-1.9-.35-2.72.37,0,0,0,0,0,0-.75.44-1.86.71-1.48,1.9.39,1.22,1.39,1.78,2.67,1.76.89-.02,1.79-.09,2.68-.14,1.04-.15,2.16.39,3.13-.37,0,0,0,0,0,0,1.04.12,2.07.25,3.11.37.66-.08,1.4.27,1.96-.37,4.22-.84,8.06-2.56,11.56-5.03,2.41-1.7,4.74-3.5,7.22-5.1.88-.57,1.62-1.08,1.71-2.12Z"/>
          <path class="cls-2" d="M789.7,234.01c-1.12.59-1.78-.01-2.41-.9-1.93-2.71-3.32-5.71-4.67-8.72-.89-1.98-2.08-3.88-2.34-6.12.66,0,1.31,0,1.97,0,0,0,0,0,0,0h0c.65.03.99-.54,1.5-.78.66-.77.64-1.55,0-2.33h0s0,0,0,0c-.15-.2-.34-.39-.45-.61-.99-2.01-1.31-2.1-3.03-.75-.36.28-.63.54-1.19.41-1.92-.45-3.24-1.31-3.81-3.43-.5-1.87-.83-3.76-1.2-5.65-.16-.8.11-2.04-.77-2.18-.95-.14-1.15,1.15-1.58,1.89-.03.05-.02.13-.04.19-.63.54-.29,1.27-.38,1.91,0,0,0,0,0,0-1,2.96.77,7.57,3.43,8.97.61.32,1.5.44,1.58,1.27.29,2.9,1.82,5.36,2.88,7.95,1.53,3.74,3.19,7.47,5.76,10.69.5,1.36,2.07.28,2.76,1.2,0,0,0,0,0,0,0,0,0,0,0,0-.24,1.87.54,3.77-.34,5.65-.29.63-.36,1.82.83,2.04,1.11.2,1.55-.57,1.89-1.53.7-2.01,1.27-4.06,2.43-5.89.8-1.25-.26-2.23-.79-3.18-.47-.84-1.32-.49-2.05-.1Z"/>
          <path class="cls-2" d="M801.92,368.57c.76.39,1.2-.21,1.59-.73.19-.25.32-.56.46-.85,3.36-6.56,7-12.96,10.65-19.35,2.04-3.56,2.06-3.55-1.2-5.78-.53-.7-1.29-.32-1.95-.41-.61-1.03-1.41-1.02-2.32-.42,0,0,0,0,0,0-1.18.65-2.37,1.3-2.74,2.75-.61.91-.6,1.81,0,2.72,0,0,0,0,0,0,.76,2.12.56,4.12-.71,6.01-.11.17-.06.54.05.75.61,1.24.11,2.38-.19,3.57-.66,2.65-1.67,5.15-2.99,7.54-.43.79-.72,1.66-1.05,2.5-.25.65-.31,1.33.41,1.7Z"/>
          <path class="cls-2" d="M958.61,120.51c1.62-2.97,2.39-6.24,3.37-9.44.59-1.3.59-2.59,0-3.89,0,0,0,0,0,0,.09-1-.31-1.86-.8-2.68-1.01-.71-2.05-.6-3.1-.08,0,0,0,0,0,0-1.34.81-2.5,1.83-3.54,2.99-1.73,1.93-3.27,4.31-2.89,6.73.3,1.87.22,3.8.72,5.61.48,1.75,1.87,2.75,3.7,2.98,1.64.21,1.96-1.17,2.54-2.22Z"/>
          <path class="cls-2" d="M885.84,82.07c1.32-.26,2.6-.73,3.98-.63,2.22,0,4.44,0,6.66,0,0,0,0,0,0,0,0,0,0,0,0,0,5,.66,9.83,1.9,14.4,4.08,2.21,1.05,4.42,2.12,6.87,2.6-5.87-5.43-13.01-8.35-20.51-10.58-2.21-.61-4.41-.62-6.62,0,0,0,0,0,0,0h-.78c-.77-.59-1.54-.57-2.33-.03,0,0,0,0,0,0-1.06-.02-2.03.3-2.97.76-1.36.66-1.13,1.96-.93,3.01.23,1.19,1.29.97,2.22.78Z"/>
          <path class="cls-2" d="M1048.1,333.24c.92,1.9,1.02,1.92,2.49.49,3.45-3.38,5.85-7.52,8.37-11.58.84-1.35,2.16-2.72-.24-3.87-.13-.06-.19-.32-.25-.49-.72-2.25-1.48-2.53-3.39-1.4-1.16.69-1.7,1.65-1.88,2.94-.1.75-.21,1.62-.63,2.2-2.09,2.86-3.14,6.19-4.45,9.4,0,0,0,0,0,0h0c-.57.77-.56,1.54-.02,2.32,0,0,0,0,0,0Z"/>
          <path class="cls-2" d="M965.23,104.8c-.46-.31-.96-.84-1.53-.47-.59.39-.33,1.05-.12,1.58.53,1.31.45,2.69.29,4.01-.31,2.54-.96,5.02-1.94,7.4-.52.64-.53,1.28,0,1.92,0,0,0,0,0,0-.04,2.19-.48,4.32-.9,6.46-.16.83-.08,1.45.74,1.67.75.2,1.16-.28,1.38-1,.39-1.29.63-2.7,1.33-3.81,2.01-3.18,2.82-6.69,3.35-10.32.57-.9.57-1.8,0-2.7,0,0,0,0,0,0-.26-1.91-.94-3.6-2.62-4.73Z"/>
          <path class="cls-2" d="M853.97,168.93c0-.19.02-.39,0-.58-.1-.89.4-2.19-1.1-2.24-1.29-.04-1.03,1.18-1.26,2.01-.95,3.46-1.54,7.08-4.01,9.92-.51.59-.9,1.18-.46,1.89.41.67,1.08.65,1.86.59,3-.23,5.32-2.08,7.93-3.2,1.04-.45.69-2.11-.01-3.13-1.13-1.65-3.25-2.8-2.97-5.26Z"/>
          <path class="cls-2" d="M967.86,117.58c-.19.93.19,1.73.6,2.56.65,1.32,1.9,2.09,2.79,3.2,2.33,2.91,5.34,4.96,8.65,6.62.63.31,1.32.36,1.74-.28.51-.76-.16-1.07-.66-1.52-2.79-2.5-5.47-5.08-7.34-8.42-.95-1.7-1.58-3.53-2.54-5.21-.36-.62-1.11-1.46-1.56-.73-.69,1.14-1.96,2.15-1.67,3.78Z"/>
          <path class="cls-2" d="M862.73,81.45c.71-.59,1.49-1.36.7-2.28-.8-.93-1.64-.34-2.29.39-.54.6-1.26.88-1.96,1.23-4.94,2.46-8.75,6.31-12.55,10.17-.57.58-.62,1.32-.3,1.98.3.63.81,1.16,1.57,1.36.92-.16,1.41-.92,1.92-1.54,1.94-2.35,4.27-4.27,6.6-6.19,2.09-1.72,4.21-3.39,6.3-5.12Z"/>
          <path class="cls-2" d="M894.77,126.85c-.74-.36-1.61-.45-2.41-.7-.43-.13-.91-.44-1.21.09-.28.49-.18,1.06.32,1.38,2.74,1.77,5.34,3.83,8.9,3.73,3.37-.09,6.74-.02,10.1-.01h4.31s0,0,0,0h0c1.99-.07,3.88,1.03,5.96.67-.17-.66-.61-.58-.96-.68-2.27-.68-4.58-1.14-6.91-1.54-1.11-.19.04-.52-.04-.77-1.9-.9-3.92-.18-5.87-.4,0,0,0,0,0,0,0,0,0,0,0,0-.91-.01-1.81-.02-2.72-.04-.7-.66-1.57-.25-2.35-.35,0,0,0,0,0,0,0,0,0,0,0,0-2.51.21-4.87-.3-7.14-1.39Z"/>
          <path class="cls-2" d="M878.15,303.74c-1.01,2.37-1.84,4.84-1.91,7.44-.07,2.8,1.75,5.05,2.49,7.62.34,1.18,1.28,1.95,2.59,2.87-.44-1.55-.48-2.75-.46-3.96-.07-.66.27-1.4-.35-1.97,0,0,0,0,0,0,0-1.7,0-3.39,0-5.09.66-.7.25-1.56.35-2.35,0,0,0,0,0,0,0,0,0,0,0,0-.08-1.07.06-2.1.42-3.11.54-.66.58-1.31-.05-1.94h0s0,0,0,0c-1.22-1.03-2.39-1.18-3.1.49Z"/>
          <path class="cls-2" d="M867.63,336.79c.64.54,1.29.54,1.93,0,0,0,0,0,0,0,4.02-1.47,7.92-3.22,11.35-5.79.99-.74,2.47-2,1.42-3.34-1.34-1.71-2.5.14-3.52.89-3.38,2.5-6.96,4.66-10.85,6.25-1.41.58-1.44,1.13-.32,1.99Z"/>
          <path class="cls-2" d="M944.78,103.51c-.28,1.05-.71,2.14.57,2.66,1.14.47,1.97-.47,2.52-1.29,1.3-1.98,2.8-3.72,4.95-4.77.98-.48,2.04-.78,2.89-1.5.6-.65.63-1.3-.03-1.93h0s0,0,0,0c-4.14-1.64-10.05,3.59-10.9,6.84Z"/>
          <path class="cls-2" d="M866.74,327.34c-.13-4.3-2.13-8.18-1.87-12.37,0,0,0,0,0,0,0,0,0,0,0,0,0-.92,0-1.85,0-2.77,0,0,0,0,0,0,0,0,0,0,0,0-.25-.44-.55-.87-.74-1.34-.19-.47.22-1.34-.73-1.28-.87.05-.85.83-.9,1.48,0,0,0,0,0,0h0c-.54.64-.54,1.28,0,1.93,0,0,0,0,0,0-1.39,4.62.69,11.97,4.22,14.36Z"/>
          <path class="cls-2" d="M942.95,155.1c-.66-.57-1.27-.52-1.76.29-.84,1.42-.37,6.61.69,7.81.46.52,1.02.5,1.6.43.61-.07.85-.5.93-1.07.14-.89.3-1.77.4-2.34-.03-1.43-1.18-4.53-1.87-5.13Z"/>
          <path class="cls-2" d="M800.56,184.75c-.61.91-.61,1.82,0,2.72h0c0,1.62,1.37,2.23,2.35,3.12.78.59,1.55.58,2.33,0,0,0,0,0,0,0,.13-.13.26-.27.4-.4.58-.79.62-1.56-.03-2.33h0s0,0,0,0c-.9-1.29-1.8-2.58-2.71-3.87-.64-.63-1.29-.6-1.95-.02h0s0,0,0,0c-.3.17-.36.46-.39.77Z"/>
          <path class="cls-2" d="M855.96,136.16c.86-1.27.04-1.81-.98-2.37-1.12-.62-1.5-.28-1.93.85-.69,1.81-1.64,3.52-3.11,4.87-.48.44-1.01.94-.25,1.61.66.55,1.3.58,1.94-.03h0s0,0,0,0c1.81-1.31,3.1-3.09,4.33-4.91Z"/>
          <path class="cls-2" d="M786.88,186.29c.79-.12,1.68.36,2.36-.4,0,0,0,0,0,0,0,0,0,0,0,0l.8-1.15c.57-.78.57-1.55,0-2.33,0,0,0,0,0,0-1.33-1.4-2.88-1.31-4.31-.33-1.07.73-1.88,1.93-1.33,3.26.37.89,1.25,1.67,2.48.95Z"/>
          <path class="cls-2" d="M917.05,110.31c-.94.03-2.29-.09-2.1,1.29.15,1.08,1.18,1.94,2.43,1.76,2.33-.34,4.64-.84,6.96-1.28.09-.28.18-.56.28-.84-1.86,1.27-1.64-1.2-3.09-.99-1.46.22-2.98.02-4.47.06Z"/>
          <path class="cls-2" d="M1008.2,286.66c-.94.92-1.99,1.86-2.43,3.16-.3.88.71,1.88,1.55,1.63.48-.14,2.94-3.44,2.95-3.96.01-.86-1.35-1.53-2.06-.84Z"/>
          <path class="cls-2" d="M879.51,422.98c-.58-.03-1.08.38-1.1.88-.03.65.3,1.29,1.11,1.31.61.02.9-.41.96-1,0-.66-.24-1.16-.96-1.2Z"/>
          <path class="cls-2" d="M917.93,375.33s0,0,0,0c-1.38.32-1.64,1.54-.69,2.04,1.43.76,2.78,2.12,4.35,2.19,5.12.22,9.61-2.09,14.16-4.05.61-.26.62-.98.31-1.54-.29-.53-.79-.63-1.34-.38-1.77.81-3.71,1.06-5.56,1.63-2.45.75-4.89,1.02-7.36.13-1.29-.59-2.59-.58-3.88-.01Z"/>
          <path class="cls-2" d="M898.81,57.28h0c.59.44,1.11,1.22,1.94.38.88.05,1.72-.01,2.34-.75,0,0,0,0,0,0,.56.04,1.06-.13,1.53-.42.67-.08,1.42.29,1.98-.38.66,0,1.32,0,1.99,0,0,0,0,0,0,0,0,0,0,0,0,0,3.65.64,6.79,2.27,9.59,5.34-.48-4.92-1.53-8.92-6.51-10.42-2.64-.61-5.25-.75-7.79.42,0,0,0,0,0,0,0,0,0,0,0,0-.42.13-.86.22-1.26.41-1.61.77-3.66.8-4.6,2.71-.52,1.14-.91,2.23.79,2.72Z"/>
          <path class="cls-2" d="M871.91,139.92s0,0,0,0c-.93.69-1.85.23-2.76-.05-.77-.24-1.7-.83-2.19.21-.46.97.26,1.73,1.02,2.28.41.3.89.55,1.38.66,3.52.84,6.89.62,9.94-1.55.95-.1,1.47-.62,1.57-1.57,0,0,0,0,0,0,0,0,0,0,0,0,.35-.68.76-1.34,1.02-2.05.52-1.41,1.11-2.52,2.85-2.9,1.37-.3,1.44-1.6.8-2.8-.64-.62-1.29-.59-1.94-.03h0c-1.77.89-3.22,2.15-4.54,3.63-1.29,1.44-2.68,2.83-4.4,3.79-.92.13-1.92-.37-2.75.38,0,0,0,0,0,0Z"/>
          <path class="cls-2" d="M799.38,218.24h0s0,0,0,0c-.23-1.12-.82-1.8-1.88-2.41-1.37-.8-3.21-1.54-2.8-3.77,0-.79,0-1.57.01-2.36h0c0-1.43.01-2.87.02-4.3.58-.9.57-1.8,0-2.71,0,0,0,0,0,0-.06-.72-.46-1.29-1.1-1.46-2.17-.57-3.33-2.21-4.4-3.97-.67-.79-1.57-.3-2.35-.42,0,0,0,0,0,0,0,0,0,0,0,0-.82-.08-1.34-.69-1.95-1.13,0,0,0,0,0,0,0,0,0,0,0,0,0-.29,0-.57,0-.86,0,0,0,0,0,0,0,0,0,0,0,0,.96-.99.98-1.99.16-3.1-.49-.67-.89-1.42-1.25-2.16-.68-1.39-1.17-2.98-3.31-2.25-.14.05-.44-.39-.66-.61-.06,0-.11-.02-.17-.03.06,0,.11.02.17.03-.59-.66-1.34-.59-1.89-.13-.65.55-.67,1.34-.08,2.04,0,0,0,0,0,0,.02.64.39,1.12.88,1.42,1.77,1.07,2.7,2.83,3.83,4.42,0,.15-.01.3-.02.45,0,0,0,0,0,0,0,0,0,0,0,0-.31-.03-.61-.09-.78-.4-.63-.64-1.28-.59-1.94-.05h0c-.26.26-.52.53-.79.79,0,0,0,0,0,0-.27.14-.54.28-.82.41,0,0,0,0,0,0,0,0,0,0,0,0-.73-2.82-1.29-5.67-1.53-8.58-.06-.13-.11-.27-.14-.41.05.14.09.27.14.41-.07-.85.34-1.86-.79-2.35-.63-.62-1.28-.58-1.93-.02,0,0,0,0,0,0-.92.51-1.22,1.55-1.08,2.31.5,2.61.59,5.31,1.47,7.85.09.65-.26,1.39.39,1.93h0s0,0,0,0c.49,4.93,2.14,9.51,4.27,13.94.33.68.81,1,1.56.78.81-.24.88-.91.76-1.57-.22-1.26-.8-2.45-.76-3.77-.01-.65.32-.66.78-.42h0c1.4,2.87,4.22,4.15,6.65,5.87.61.74,1.45.8,2.32.76,0,.38.02.77.02,1.15-.3,1.63.45,2.62,1.94,3.14,0,0,0,0,0,0h0c.25.14.51.28.76.42-.25.25-.51.49-.76.74,0,0,0,0,0,0-.76.52-1.43.46-2.05-.26-.69-.8-1.42-.44-2.04.1-1.41,1.23-1.34,2.6.4,3.32,1.82.75,2.6,1.95,3,3.79.32,1.49.62,3.02,1.29,4.45,1.01,2.14,1.64,2.38,3.64,1.08.68-.3,1.18-.75,1.21-1.55.79-.96.23-2.09.39-3.13,0,0,0,0,0,0,0,0,0,0,0,0-.12-1.88.35-3.66.81-5.45.62-.57.28-1.31.35-1.97ZM793.92,217.32s.01-.02.02-.03c0,0,.02,0,.03.02-.01,0-.03,0-.04.01Z"/>
          <path class="cls-2" d="M942.84,174.21s0,0,0,0c.04,3.47,1.53,6.36,3.71,8.92,1.53,1.79,3.08,1.63,4.29-.43.54-.92.61-2.27,1.34-2.9,1.03-.87.7-1.35.2-2.24-1.65-2.91-3.77-5.57-4.83-8.8-.16-1.03.36-2.14-.36-3.11,0,0,0,0,0,0-1.09-1.46-1.96-1.54-2.66-.1-.55,1.14-1.22,2.28-1.28,3.6-.73.83-.23,1.83-.37,2.74,0,0,0,0,0,0,0,0,0,0,0,0,0,.13,0,.25-.02.38-.57.64-.56,1.28-.02,1.93Z"/>
          <path class="cls-2" d="M873.11,315.73s0,0,0,0c0-.32-.03-.65-.03-.97,0-2.85,0-5.7-.02-8.55,0-.91-.3-1.69-1.24-1.98-.82-.26-1.05.5-1.47.96-2.5,2.71-1.74,5.98-1.26,9.01.68,4.36,3.42,8.02,4.79,12.18.02.07.22.09.53.2-.44-1.05.39-1.9-.05-3-.74-1.86-1.03-3.86-.89-5.88-.08-.66.26-1.39-.35-1.95Z"/>
        </g>
        <g id="stroke">
          <path class="cls-3" d="M1060.62,411.01c23.34-14.01-30.37-43.25-39-53.97-1.68-1.4-1.72-1.54.14-2.36,12.39-5.7,23.74-13.64,33.04-23.61,22.16-22.97-12.16-35.51-32.88-4.1,4.02-30.02,4.92-55.95-23.31-75.13-5.36-3.89-10.61-8.61-15.22-12.9-4.15-3.17-8.79-5.49-10.91-10.61-7.65-9-16.76-1.17-30.66-11.8-2.26-.83-.84-3.17-1.72-4.81-.51-6.33-.56-12.95,0-19.27.15-.58-.51-1.62.74-1.58,2.83.09,5.05-1.48,7.41-2.64,2.6-1.42,4.76-4.65,6.71-7.11,4.37,1.42,10.06,5.61,15.49,3.99,4.83.07,22.02-9.42,12.3-13.32-2.23-1.03-3.72-2.83-4.44-5.35,15.44,7.55,25.5,6.61,38.17-4.88,2.35-1.96,7.07-8.2,2.76-9.93-8.86-3.49-12.36-13.43-20.28-17.06.15-7.96-.71-15.99,1.83-23.59,3.49-9.32,6.38-24.57-6.63-27.45-.92-.16-.64-.65-.57-1.07.99-6.26,3.02-12.63,1.92-18.93-1.02-14.4-8.53-23.33-23.54-24.13-22.1.77-13.17-1.64-25.62-15.21-13.15-11.26-26.37-8.2-39.82.42-2.35.58-19.26,14.51-9.88,12.38,60.53-47.07,44.55,18.89,80.95,27.55-9.49-5.47-15.95-12.93-19.67-23.05,3.03,0,5.79,2.17,9.09,1.45,26.26-3.54,27.96,24.42,23.16,43.31-.07,2.47-1.44,8.17,1.85,8.84,1-.25.73-1.08.6-1.76-1.84-18.24,13.02.58,7.63,9.67-4.07,13.89-10.92,34.33,2.85,44.9,5.2,1.36-3.33-7.45-3.13-10,2.58,1.99,4.23,4.12,5.61,6.47,3.02,5.38,8.13,8.21,13.55,10.88-13.18,14.83-40.06,15.37-47.49-2.77-2.37-5.22-4.78-10.57-8.81-14.77-2.93-2.99-3.07-3.1-.69-6.7,8.53-10.28,18.61-45.52-6.04-35.91-2.66.91-17.35,18.26-11.54,17.49,3.46-5.64,6.99-11.25,12.5-15.2,2.35-1.67,4.79-2.52,7.36-.88,14.16,9.81-4.4,29.15-7.86,40.96-1.91-4.64-5.32-9.77-10.03-4.72-5.15,7.09-9.26,17.82-3.04,25.54.89,1.05.9,2.57.47,3.9-4.88,16.65-9,34.6-6.04,51.93.68,3.11-.25,4.57-2.38,6.24-5.67,3.55-12.25,11.35-19.13,10.04-2.34-1.03-7.27,1.48-6.1-3.5.19-3.58-1.21-7.22-1.79-10.77-4.99-31.96-20.52-22.7-6.51-31.16-9.33,2.3-18.44,9.49-27.75,2.03-15.61-10.77-23.99-28.81-34.48-44.09-6.14-9.76,3.82-19.68,12.61-22.82,5.13-2.21,10.56-2.62,16.08-2.34.54.03,1.27.46,1.49-.63,2.04-11.28,2.81-25.33-5.02-34.59-.99-1.04-2.74.45-1.28,1.36,3.06,2.45,7.4,22.56.54,15.73.15.78.72,1.62.08,1.73-1.16.2-1.02-1.51-2.12-1.85-.19.81.49,2.2-.03,2.28-.46.18-.74-.18-.93-.51-2.78-5.55.36,4-3.47-.56-.75.51.62.88-.11,1.3-1.02-.26-.03-1.57-1.12-1.85-.75,3.53-4.1-1.76-3.34,2.13.18.89,0,.91-.66,1-3.9.04-.4-4.33,0-6.42-6.3,5.7-2,2.17-5.17-3.85-.34-6.43,17.36-11.39,17.14-16.47-.14-11.72-9.75-4.46-14.01.65-1.01-.8.71-2.01.89-3.01,3.54-5.55,5.25-13.53,9.86-17.75,4.35-.11,7.15,1.97,11.35,3.43-2.19-4.53-5.44-6.38-9.97-6.16.25-1.78,3.11-1.75,2.45-3.44-1.28-1.79-3.44.35-4.42,1.51-11.29,23.48-32.09,58.95-59.56,30.95,23.12-10.59,14.49-43.12,28.29-61.2,36.04-42.08,44.41.89,55.06,31.91,3.72,2.95-4.59-25.71-6.14-30.88,10.06,6.07,15.12,17.65,13.92,29.41-1.06,2.86,2.44,3.12,2.28.32,1.45-13.14-3.96-29.56-17.55-33.86-3.21-9.04-9.05-17.79-18.72-18.4-52.3.65-32.99,72.93-60.79,81.07-3.79.92,1.73,4.18,2.78,5.45,13.81,16.92,26.97,4.49,25.35,13.76-1.55,4.99-4.29,9.94-4.69,15.11-2.95,9.15,6.69,14.14,13.86,17.03-1.21,3.39.03,6.94,1.69,10.13,5.72,9.88,9.75,28.16-4.66,32.02-2.32,2.99,1.46,3.01,3.32,4.21,3.22,2.57,7.59,3.94,11.49,3.97,2.65.82,5.43.23,7.73-.81,1.98.61,2.84-1.76,4.64-1.93,6.13,1.17,9.9,10.4,17.27,11.94,4.96,2.58,9.98.65,14.9-.14,11.43,3.57,12.5,16.86,14.73,26.89.29,1.65.67,3.13-1.76,3.58-1.97.42-3.65,2.53-5.72,2.59-10.27.22-17.84,12.14-26.35,17.25-8.74,6.64-16.97,13.29-23,22.58-15.29,17.12-30.7,38.13-40.69,56.84.02-3.2.11-14.96-1.17-22.17-1.16-20.59-4.97-41.08-.32-61.63,4.3-2.06,8.09,2.6,10.73-6.19,1.65-8.85,9.23-17.79,6.23-26.84-1.55-2.16-1.54-4.74-2.14-7.11-.08-5.31-3.73-9.39-4.73-14.39-1.09-10.05.06-20.39.4-30.44-.64-5.65,2.89-10.72,2.88-16.08-4.96-7.55-16.44.71-16.58,8.29-.81,10.83.57,18.53.06,29.71.41,2.4.37,4.96.4,7.48.02.68-.22,1.42-.88.91-20.35-12.33-3.72,3.08-21.36-6.96-.68-.46-1.33-.79-1.59.4-4,.29-2.32,4.18-5.79,5.64-5.37,2.53-5.22,8.86-4.67,13.98.03,4.47-.6,8.66-.02,13.08,2.91,6.31,5.65,14.83,9.66,20.72,2.48,5.93,8.93,7.96,6.69,15.21-6.04,32.89-21.6,63.41-26.12,96.66-3.59,18.08-3.33,48.18,9.65,62.76,16.75,1.33,35.49-3.95,50.15-12.84,3.25-2.43-3.56,8.81-3.58,10.16-9.39,22.92-13.62,47.54-19.15,71.58-5.4,24.85-7.19,51.39,2.33,75.83,1.56,6.37,11.4,17.84,4.61,2.61-12.72-34.85-5.57-71.42,3.15-106.93,4.61-26.1,18.17-52.92,27.72-75.23,10.22,11.52,24.67,4.34,14.56,1.94-7.35-.36-13.14-6.29-17.64-11.51-22.43-23.35,1.12-48.97,15.53-69.14,7.38-11.27,17.46-20.49,24.46-32.01,7.35-10.68,11.79-23.54,23-30.95-.02.12-.87,1.15-1.11,1.67-12.21,21.55-24.46,47.28-22.07,71.88-2.31-.06-3.22,1.66-4.26,3.23-1.51,2.19-5.11.15-6.37,3.15-2.75,2.58-1.43,6.74-3.61,9.06-6.21,9.24,1.83,21.63,7.46,29.31,7.55,6.92,12.6,19.33,22.48,22.31,3.17,1.07,3.5,3.26-.46,3.03-4.81-.81-9.1,2.07-13.9,2.12-1.08.01-1.38,1.06-1.11,2.07,3.55,5.74,12.04-.53,17.31-.1,1.32.38,2.36,1.36,2.97,3.22.85-.94-.89-2.16-1.16-3.18,4.56,1.2,3.86,7.57,5.85,11.05.89,4.07,3.3,9.4,4.47,13.96,1.58,3.87-13.72,4.02-16.31,4.32-9.48.49-19.04.22-28.45-.99-5.97.98-18.93-9.19-20.47-2.2-3.58,12.68-6.29,25.95-6.93,38.72-.9,2.37-.73,5.14-.84,7.67-.78,2.05-.34,4.43-.39,6.61-.53,4.39-.46,8.81.33,13.12.26,2.73.91,9.6,4.64,9.52,1.48-1.73-1.7-3.81-1.13-5.95-.69-5.3-.96-10.98-.8-16.59.77-8.68,1.38-16.85,3.17-25.38,1.46-4.09,3.3-27.79,7.71-25.78,18.99,6.78,40.2,5.69,59.79,2.6.68-.1,1.48-.71,1.85.44,7.08,19.7,14.33,39.58,26.95,56.45,5.32,5.32,10.22,11.41,17.07,14.85,3.88,2.33,7.5,5.16,11.36,7.39,1.92.17,3.59,1.55,5.63,1.14.44-.09.64.19.67.68,12.55,10.4,28.25-44.09,31.52-53.33,3.58-13.23,7.56-26.7,9.36-39.73.87-.78.13-1.88.44-2.72.56-1.6.65-3.4.73-5.08,1.35.97,1.21,3.54,3.42,3.48,1.52.38,1.36-1.12,1.95-1.94.86-.55.38-1.39.45-2.1.19-3.72,1.72-7.06,1.66-10.72.57-.61.27-1.34.31-2.03.59-1.02.33-2.24.47-3.42.56,1.14.58,2.55.75,3.84-.48,13.14,2.67,25.42,1,38.45-1.87,18.35,2.49,36.72,7.18,53.98,8,21.23,19.5,41.64,30.36,61.82.34,1.18,1.84.8.77-.36-5.15-11.68-9.9-23.55-15.74-34.92-4.97-8.98-8.1-18.51-11.64-27.27-.77-1.56.28-3.57-1.1-5.04-.16-2.13-.11-4.54-1.16-6.62-1.22-11.74-5.16-23.18-4.23-35.22.17-8.09.83-16.19-.04-24.21,3.66,6.62,5.22,14.62,9.12,21.35,13.66,23.94,21.61,51.7,29.53,78.82.16.57.42.98,1.04.86.85-.16.24-.64.16-1-.23-1.11-.53-2.21-.69-3.32-1.56-5.87-1.76-12.03-3.28-17.5-1.87-29.41-21.88-54.39-30.27-82.36,8.18,9.31,19.39,23.78,33.43,19.82ZM1023.13,314.41s-.01.05-.02.08c0-.03.01-.05.02-.08ZM959.07,137.97c4.09,5.04,6.15,11.45,9.14,17.15,2.84,6.14,7.22,6.87,8.38,14.06,1.31,2.82,3.38,4.8,6.41,5.72-11.44,15.05-33.27,3.9-35.39-12.72-1.25-2.61,4.82-.03,8.15-1.69,9.61-4.56.82-16.14,3.31-22.51ZM943.57,153.91c-3.2-6.52,1.01-13.26,4.12-18.88,7.56-7.07,9.77,12.57,10.31,17.47.96,6.87-7.41,7.13-10.85,3.57-2.83-3.82-1.72-8.25-1.2-12.36-1.64,3.05-1.83,6.6-2.39,10.2ZM940.56,187.04c1.19-7.04,2.67-14.01,4.8-21.31,1.71,4.79,3.89,8.78,7.1,12.15,1.97,2.14-11.64,13.89-11.9,9.17ZM864.11,104.49c3.55.05,3.49.05,3.53,3.57-.58,2.39.95,8.85-3.27,7.47,2.4-3.81.71-7.83-.27-11.04ZM857.09,106.05c-2.53,4.27,1.35,9.73-.13,10.33-2.6.38-5.01,1.44-7.52,2.22-.44-9.94.98-10.81,7.65-12.55ZM858.32.07s-.05-.03-.08-.04c0,0,.1.06.08.04ZM797.44,83.46s0,0,0,0c0,0,0,0,0,0ZM858.98,72.81c2.8-2.66,4.86,3.78,2.71,5-7.82,3.31-13.21,9.25-18.94,15.22,2.91-8.74,9.22-14.79,16.23-20.22ZM830.23,126.08c-12.46-6.78,1.31-19.79-1.98-29.47-.43-.98-.3-1.27.76-1.53,10.65-.82,17.37-16.73,12.11.48-.51,1.52.93,1.93,1.74.71.75-.8,1.46-1.64,2.4-2.7.58,3.53,2.34,7.8,1.36,10.83-1.94.12-1.46,1.34-.67,2.01,1.94,1.66,1.27,3.64.89,5.51-.35,14.52-4.23,8.3-9.88,19.41-1.53-2.75-4.35-3.71-6.73-5.25ZM856.64,177.16c-32.16,6.6-6.8-3.95-11.58-20.74,4.36,6.11,7.42,13.18,12.3,19.04.93,1.24-.01,1.39-.72,1.7ZM758.5,368.31s.02.07.03.11c0-.04-.02-.07-.03-.11ZM794.39,489.51s-.03.05-.04.08c.01-.03.03-.05.04-.08ZM793.22,500.49s0,.02,0,.03c0,0,0-.02,0-.03ZM797.76,525.07s0,0,0,0c0,0,0,0,0,0ZM797.39,521.57c-.06-.27-.09-.53-.12-.8.04.26.08.54.12.8ZM1051.49,383.83c4.26,4.25,15.19,13.96,12.1,20.06-7.44-12.52-21.75-26.73-36.25-34.94-14.84-16.6,18.78,10.03,24.15,14.87ZM1059.69,403.13c-16.42-.68-27.06-19.4-33.91-32.78,12.47,8.99,27.52,18.99,33.91,32.78ZM1040.46,434.14s0,0,0,0c0,0,0,0,0,0ZM1042.41,438.43h0s0,0,0,0ZM1031.88,417.38s0,0,0,0c0,0,0,0,0,0ZM1021.56,412.36s0,0,0,0c0,0,0,0,0,0ZM1023.69,463.39s0,0,0,0h0ZM1057.32,318.06c11.61,4.24-37.25,39.97-35.59,31.62,2.06-6.66,13.15-7.09,17.85-13.3,5.97-5.06,11.86-10.7,15.54-17.69.48-1.5,1.27-1.13,2.21-.62ZM1024.75,342.95c6.5-11.31,16.34-23.75,29.05-27.54-3.14,11.96-17.88,22.73-29.05,27.54ZM1027.53,323.5c6.24-7.83,18.29-17.99,28.49-11.84-18.54,3.05-30.56,21.97-37.52,37.91.49-9.54,2.16-19.14,9.03-26.07ZM966.41,226.76c3.71,1.7,6.22,2.65,3.85,6.97-8.04,20.06-12.71,41.44-13.98,63,.29,4.78-1.16,12.56,3.71,15.24,1.24.29,1.15.89,1.05,1.88-1.63,12.93-4.72,25.61-5.28,38.67-8.1,35.11,5.41,7.74-.41,29.54-1.77,3.62-2.46,22.08-7.08,19.91-8.55-8.72-23.53-17.18-29.23-25.79,9.31,4.74,31.61-8.74,13.27-3.97-6.61,1.3-16.15,1.72-20.62-4.09-1.57-3.93-5.52-7.64-6.36-11.4,9.78-20.01,5.48-21.07-3.2-39.48-.65-1.89-1.74-5.04-1.02-6.57,39.61,11.5,40.02-86.2,65.31-83.9ZM939.21,219.98c3.04,17.88-3.73,34.11-18.96,13.66,7.22-3.19,13.52-7.54,18.96-13.66ZM914,232.41c2.99-.43,3.67,3.72.41,3.51-2.05.2-2.8-3.5-.41-3.51ZM908.16,223.36c-.12,1.68.41,3.07.82,4.64-1.37-1.97-5.35-4-.82-4.64ZM901.12,233.45c2.34-11.62,2.39-6.25,9.32-1.71.59.47-.11,1.62-.06,2.33-.28.92,1.04,1.87.1,2.65-5.57,6.01-10.97,6.59-9.35-3.27ZM900.74,226.92c-4.74,10.7-.9,25.17,10.55,11.88.5-.72.77-1.21,1.92-.82,9.73-.23.32-6.59,11.86,5.25,16.45,11.84,18.65-10.79,16.67-22.3.22-2.96,11.04,5.97,15.87,4.67-21.51,25.04-16.73,79.13-56.08,83.08-.39-4.27-1.56-9.64-6.3-4.52-1.47.96-3.23,6.81-4.19,4.55-1.83-7.37-9.91-5.25-13.7-9.54-7.05-18.9,12.22-56.22,23.39-72.26ZM809.91,328.16c16.41-33.67,39.94-65.47,69.79-87.89.73,1.39-4.22,6.66-5.26,9.21-16.61,29.75-48.21,51.86-55.9,86.04.14,9.42-.18,4.21-8.04,2.87-5.16.29-1.53-7.61-.58-10.22ZM807.91,311.06s0,0,0,0c0,0,0,0,0,0ZM807.92,311.07s0,0,0,0c0,0,0,0,0,0ZM807.13,299.37h0s0,0,0,0ZM805.19,277.53c-.16-.34-.18-.74-.16-1.1.04.34.14.83.16,1.1ZM816.47,170.5c0-.07.02-.14.02-.22,0,.07-.02.14-.02.22ZM816.87,160.09s.01-.03.02-.05c0,.02-.01.03-.02.05ZM792.13,184c1.03-.9.36-2.42,1.86-2.83,4.05,1.51,10.49,3.26,10.2,8.67-1.96-2.26-13.68-4.71-12.06-5.84ZM780.09,181.2c.86-5.76,6.46-.94,8.88,1.07,1.23.98.37,3.43-1.18,2.93-3.59-.83-10.72,1.5-7.69-4ZM772.91,188.69c3.95-5.3,4.22,12.85,5.75,16.44.24,2.13,3.67,6.73.09,7.3-2.02-2.04-1.98-6.8-3.41-9.64-.02-3.73-5.13-11.84-2.43-14.09ZM788.81,212.37c1.51,4.51-2.57,6.35-4.25,1.49-1.98-5.38-2.87-11.02-4.51-16.5-1.23-4.38,4.3.75,6.45.82.84.28.84.79.77,1.48-.45,4.35.15,8.58,1.54,12.71ZM786.08,238.92s0,0,0,0t0,0ZM801.28,396.47c-8.66,2.71-18.44,1.84-26.6,5.44-2.38.78-2.96.62-4.21-1.5-26.14-53.24,15.38-110.8,19.22-163.06,1.44-.5,5.96-2.64,4.63-4.21-4.39-.87-7.31,5.84-10.22-.33-4.65-7.69-7.99-16.09-11.79-24.22-.55-1.4-.09-3.2-.09-5.41,1.15,3.31,2.14,6.11,3.09,8.93,2.57,6.71,6.51-1.79,8.64,5.34.55,1.14,1.39,1.61,2.57,1.65.96,2,2.68-.93,3.7-1.8.91,3.34,4.93,1.44,5.78-.95.61.66,1.27,1.1,1.66,1.83.88,1.4,3,.04,1.83-1.29-1.92-2.98-3.09-6.35-2.19-9.87.3-1.7.49-3.44.96-5.1-3.17-5.81-12.24-5.34-17.06-9.97-7.97-7.26,4.13-2.09,8.58-4.14,6.06-.95,10.04,4.51,15.42,5.99,3.74,1.91,6.81,4.32,10.08,6.83,5.68-.65-6.68-7.86-8.33-9.18-1.79-2.41.13-8.86-.52-12.39.91-10.86-.72-22.82,1.52-32.97.14-5.15,4.56-11.86,9.38-9.76-.31,5.48-2.97,11.78-2.9,17.81-1.11,14.65-3.59,30.18,4.48,42.87,3.43,19.98-.25,16.04-4.38,34.76-1.19,8.8-11.17-1.76-14.27,1.04-.09,3.43,6.63,1.67,4.23,6.02-6.09,19.65-1.98,40.2-.71,60.24,3.04,22.71-.01,45.74-.49,68.07,9.28-20.08-4.06-30.38,15.73-21.48,3.83,5.39,5.6,12.6,10.56,17.59,1.19,1.45,1.83,2.85,1.44,4.74-2.28,14.92-15.62,24.93-29.71,28.49ZM794.65,205.76c-1.39.72-.61,4.6-.69,6.1,2.28,2.39-.05,3.21-1.75,4.6-1.65-5.11-3.54-25.08,2.44-10.7ZM831.32,448.81s0,0,0,0c0,0,0,0,0,0ZM978.71,470.41c-2.58,4.12-6.32,16.16-12.01,14.4-1.95-1.13-4.47-1.41-6.45-2.53-40.12-18.84-48.49-65.87-63.29-103.49-2.22-4.68-3.95-10.21-8.3-12.81-.2-.69,1.19,0,1.06-1.14-3.69,1.02-5.6.07-7.63-2.99-5.58-8.31-14.32-14.43-18.51-23.56-1.42-3.91-3.05-7.75-4.71-11.57-1.18-2.73-.42-4.96,1.36-7.2.95,1.94,1.82,3.77,2.75,5.56.29.55.32,1.65,1.3,1.29,1.77-2.09-.9-6.02-1.41-8.49-2.01-2.06,1.74-12.73,3.18-7.62.31,3.52,2.31,12.05,5.75,12.77,1.48-5.79-6.15-10.75-.37-17.73.5-1.37,3.76.34,3.21,1.59-1.94,2.22,3.72,18.66,4.22,10.72-1.53-4.86-2.85-11.34,1.9-14.68,7.17,2.01,12.08,7.67,9.8,15.4-1.61-1.59-.92-5.26-3.05-5.7-.98.19-.91,1.04-.7,1.71,1.69,6.47,4.94,12.47,7.36,18.52-.46,2.92,2.85-.37,3.84-.83-3.54-6.47-7.39-15.35-3.04-22.96.41-1.21,4-2.9,3.45-.74-.28,8.3,4.14,15.68,7.86,22.73,7.05,10.52-3.78,20.92-5.19,30.33,1.44,1.43,2.25-2.48,2.96-.21,7.43,15.74,21.18,26.16,34.29,36.94,7.36,4.56,13.19,14.9,20.75,17.13-.05-2.73-3.43-5.4-5.12-7.65-1.27-1.33-1.27-2.47-.64-4.15,2.84-9.3,4.43-19.03,5.96-28.63,9.63-9.82,32.53-.4,43.11,5.89,3.44,28.66-13.35,61.91-23.69,89.68ZM1016.18,373.74c.2.39.22.79.2,1.2-.05-.4-.12-.8-.2-1.2ZM1016.42,341c-1.95,13.89-3.68,26.93-5.7,41.03-14.27-12.36-36.38-20.55-53.85-12.39.12-9.59,13.02-65.57,4.47-68.56-3.01,1.33.04,5.86-.29,8.4-5.89-12.89,5.31-64.59,13.13-74.08,47.08,36.38,52.9,45.5,42.25,105.61ZM1020.18,446.63s0,0,0,0c0,0,0,0,0,0ZM1022.06,456.02s0,0,0,0c0,0,0,0,0,0ZM1025.82,453.74s0,0,0,0h0ZM1025.84,453.77c-.08-.19-.12-.39-.14-.59.04.18.1.43.14.59ZM1021.57,397.21c-.07-.34-.12-.68-.14-1.03.04.33.1.7.14,1.03ZM1052.56,409.21c-16.75-6.14-31.94-26.18-32.16-43.98,16.25,47.67,50.11,38.05,32.16,43.98Z"/>
          <path class="cls-3" d="M880.61,89.61c-2.95,2.51-.9,9.62-4.03,7.53,3.56,34.89-5.36,13.42,26.46,13.28,3.53-.58,6.72,1.67,10.15,1.67-.4-1.53-4.66-10.72-2.74-10.26,1.08.45,1.74-1.12.72-1.57-1.35-.77.65-1.76.89-2.76-1.34-.5-6.15,3.45-3.09-.74.3-.3.49-.58.11-.98-1.4-.2-2.38,2.19-4.44,1.58,3.28-3.15-.9-1.37-2.88-1.27.07-1.05,1.4-2.54.52-3.23-1.16.68-1.73,2.51-3.27,3.04-.58-.94.78-1.87-.25-2.84-1.63,3.38-3.45,3.96-2.35-.49-1.66.48-1.19,2.44-2.6,2.69-1.92-1.64.05-2.03-.93-4.2.02,2.32-2.26,2.52-3.35,3.77-1.77-4.07-.77-2.6-2.29.04-1.67-3.58-1.87.03-1.68,1.99-3.95-7.35-.59,3.38-4.12-2.66-.38,1.35-.05,2.43.2,3.82-2.5-2.74.11-5.71-1.03-8.42ZM905.98,101.08c2.94,5.96,8.39,9.94-1.83,6.82-.55-.03-.45-.37-.38-.82,1.13-3.01-4.23-11.71,2.22-6ZM880.66,101.32c16.36-4.04,10.62-4.88,12.22,5.95.33.89-.17,1.13-.84,1.26-11.99,2.51-13.05,11.56-11.38-7.21Z"/>
          <path class="cls-3" d="M929.56,77.15c-8.94-5.6-6.77-17.55-12.09-25.22-12.17-13.22-25.62,8.43-19.64,4.96,21.77-20.77,17.79,15.62,30.98,24.2,8.14,6.15,2.29,20.84,9.36,25.94-1-5.51,7.49-17.55-.97-9.04-.02-7.89-.62-15.71-7.63-20.83Z"/>
          <path class="cls-3" d="M888.3,69.06c-9.78,2.6,30.74,2.79,30.72,18.33-8.79-9.26-22.01-11.81-34.19-11.37-1.31.06-2-.37-1.28-1.62,2.4-12.62-8.3,6.3,1.08,4.46,13.75-1.99,26.28,3.69,37.14,11.73-1.65-15.56-19.91-21.45-33.47-21.53Z"/>
          <path class="cls-3" d="M851.88,149.93c23.74,27.13,48.04.54,67.58-14.75-1.68-.87-6.7-4.22-5.01-.48.88.58.5.98-.01,1.61-7.86,8.57-17.26,15.94-28.49,19.43-10.93,3.81-28.97,2.93-32.91-8.95.58-.47-.4-2.48-1.05-1.55-3.2,3.05-3.95,1.65-.11,4.7Z"/>
          <path class="cls-3" d="M966.65,107.84c3.65,3.91-.23-10.26-7.79-4.86-3.29,1.89-5.47,4.86-7.35,8.06-.3.52-.4,1.18-1.32.84-1.31-.58-2.09,1.41-.64,1.81,4.4,1.87-2.43,8.72,2.81,9.43,5.04.69.97,7.34,3.27,9.7,2.49-1.36.4-6.09,2.59-8.13,1.77-1.53,2.62-3.67,3.49-5.72,3.04-2.7,2.21-20.15,4.95-11.14ZM961.83,113.09c-1.21,3.28-2.37,6.63-4.47,9.84-.93-2.17-2.57-2.33-4.5-2.17.39-2.38,1.08-4.69.05-6.98,2.6-7.81,11.36-13.87,8.92-.69Z"/>
          <path class="cls-3" d="M924.1,177.68c-7.62,5.8-8.82,43.99-1.36,50.21-1.89-12.33-3.39-25.71-.33-38.39.2-3.72,2.67-8.39,1.69-11.82Z"/>
          <path class="cls-3" d="M933.01,471.77c-18.44,13.11-45.05,14.23-67.43,13.55-6.52.23-14.26-1.61-19.12-3.88-1.23-.02-4.64-4.05-3.42-.66,12.92,12.14,81.25,5.77,89.98-9Z"/>
          <path class="cls-3" d="M931.59,142.51c.78-1.8-2.71-6.33-2.72-2.17.77,12.13-10.94,21.72-16.27,31.96-.99,10.65,21.11-25.86,18.99-29.8Z"/>
          <path class="cls-3" d="M867.23,137.2c-12.17-10.71-7.32,3.79,1.47,4.23,4.42.19,7.77-2.05,10.38-5.61-3.73,1.95-7.83,3.97-11.85,1.38Z"/>
          <path class="cls-3" d="M900.15,119.95c2.94-1.17,5.39-3.35,8.33-4.73-6.13.19-11.46,4.59-18,2.22-1.88-.45-3.92-.97-5.93-.15-4.55,2.06,14.13,4.85,15.6,2.65Z"/>
          <path class="cls-3" d="M896.51,126.33c-1.16-.29-8.21-2.72-4.93.12,9.75,4.22,20.95,2.05,30.94,5.59-6.8-5.46-17.64-3.5-26.01-5.71Z"/>
          <path class="cls-3" d="M874.11,122.46c-3.94-3.26-14.54-.02-13.2,5.63,1.21.85,2.73-1.72,3.78-2.47,2.11-4.2,14.32,1.74,9.42-3.17Z"/>
          <path class="cls-3" d="M884.45,130.16c-2.34-.64-3.98,4.51-1.21,3.38.62-.94,1.29-.43,2.02-.29,7.13.6,4.75-9.08-.64-9.32-3.52.17-.49,1.32.78,1.97,2.6,1.32,2.45,4.99-.95,4.27Z"/>
          <path class="cls-3" d="M852.08,122c-.7-.08-.71,1.01-.04,1.14,5.07,2.68,9.63-1.73,14.29-2.86-4.91-.37-9.36,2.28-14.24,1.72Z"/>
          <path class="cls-3" d="M848.41,139.03c-5.34,2.82,5.3,2.97,7.22-6.54-3.19,1.64-4.24,4.78-7.22,6.54Z"/>
          <path class="cls-3" d="M917.26,111.45c1.75-1.01,9.23.49,5.16-1.53-1.43-1.79-9.26.19-5.16,1.53Z"/>
          <path class="cls-3" d="M915.24,112.62c-.63,1.4,2.76,2.86,4.27,2.69-1.19-1.09-2.59-3.56-4.27-2.69Z"/>
          <path class="cls-3" d="M886.4,69.79c-1.06-.13-1.56.3-2.1,1.22,1.21.12,1.53-.58,2.1-1.22Z"/>
          <path class="cls-3" d="M866.93,334.69c-2.5,3.84,12.21-5.53,13.91-5.9,4.09-4.31-11.06,4.53-13.91,5.9Z"/>
          <path class="cls-3" d="M792.61,222.97c-.21-4.91-3.57,2.04.39,6.98.31.54.86,1.1,1.6.67,1.42-1.92-2.81-4.89-1.99-7.65Z"/>
          <path class="cls-3" d="M905.05,282.92c4.64.24,4.85-8.25.27-8.23-4.03-.07-3.62,7.78-.27,8.23ZM905.54,276.47c1.69.05,2.26,3.79.34,3.75-1.64.16-1.72-3.86-.34-3.75Z"/>
          <path class="cls-3" d="M900.04,299.5c3.77,1.46,6.48-4.81,4.12-7.44-3.55-3.73-7.59,5.38-4.12,7.44ZM901.31,294.63c1.43-4.52,3.41,1.31.88,2.98-1.82.59-1.27-2.12-.88-2.98Z"/>
          <path class="cls-3" d="M913.14,253.18c4.27-.2,4.52-6.44.76-7.05-3.99-.57-4.85,7.16-.76,7.05ZM913.66,248.25c1.18.19,1.48,2.73-.04,2.38-1.22-.02-1.3-2.66.04-2.38Z"/>
          <path class="cls-3" d="M909.14,268.18c3.75.61,5.1-7.35.81-7.64-3.29-.24-4.02,7.62-.81,7.64ZM909.32,263.15c.13-1.12,1.54-.97,1.51.07.15,3.14-2.34,3.17-1.51-.07Z"/>
        </g>
      </g>
    </g>
    <g>
      <path id="pasta" class="cls-6" d="M583.11,725.62c5.61-4.32,10.43-9.86,14.05-16.09,7.83,19.47,33.53,32.78,51.4,18.07,2.26-1.86,1.93-5.74,0-7.68-2.24-2.24-5.41-1.87-7.68,0-1.06.88-3.45,2.13-4.86,2.54-.48.14-.97.27-1.45.37-.31.07-.62.13-.93.18-.04,0-.05,0-.1.01-1,.07-2,.12-3.01.08-.56-.02-1.12-.07-1.68-.14-.22-.04-.86-.15-.91-.16-1.19-.24-2.36-.56-3.51-.95-.43-.14-.85-.3-1.26-.46.01-.01-1.21-.55-1.35-.61-1.05-.52-2.07-1.09-3.05-1.71-3.5-2.2-7.08-5.68-9.25-9.06-2.53-3.93-3.82-7.81-3.86-12.01-.35-16.28-.7-32.56-1.05-48.84-.15-6.97-11-7-10.85,0,.06,2.79.12,5.58.18,8.36-11.36-12.18-29.52-16.91-45.88-14.78-19.34,2.52-36.17,14.79-40.39,34.51-2.73,12.78-.19,26.17,6.75,36.9-4.67,4.15-9.98,7.44-16.12,9.03-5.62,1.45-11.43,1.3-16.78-.07-1.28-.33-2.54-.71-3.79-1.15-.68-.24-1.37-.5-2.04-.78-.15-.08-.97-.45-.95-.44-2.96-1.41-5.46-3.24-7.59-5.75-4.24-4.99-6.53-11.84-7.24-18.28-.01-.13-.05-.25-.07-.38-.14-33.76-.02-67.52.04-101.28h31.09c6.98,0,7-10.85,0-10.85-10.36,0-20.72,0-31.07,0,0-4.14.01-8.27.02-12.41,0-11.84-.02-23.67-.07-35.51-.03-6.98-10.88-7-10.85,0,.07,15.97.07,31.95.05,47.92h-26.67c-6.98,0-7,10.85,0,10.85h26.65c-.04,22.05-.1,44.1-.11,66.15,0,9.93.02,19.86.06,29.79-5.99,12.13-15.24,21.96-27.45,27.08-4.91,2.06-9.99,3.41-15.17,4.26,2.55-2.83,4.59-6.32,5.94-10.61,3.98-12.57-1.21-26.64-9.41-36.32-4.13-4.87-9.19-7.93-14.98-10.44-9.01-3.9-18.43-6.53-27.77-9.46-2.73-.86-5.46-1.75-8.16-2.73-1.13-4.91-2.89-9.7-5.79-13.75-3.42-4.77-8.95-8.74-15.08-6.82-5.39,1.69-8.19,7.43-7.09,12.8,1.49,7.25,8.97,11.13,15.05,14.05,1.13.54,2.26,1.05,3.41,1.55.23,1.76.39,3.51.49,5.19.85,14.45-2.03,29.72-10,41.98-3.98,6.12-9.82,12.12-16.88,14.47-3.31,1.1-5.49,1.5-8.71,1.5-3.11,0-4.72-.29-7.85-1.4-1.74-.62-4.53-2.39-6.07-3.85-2.29-2.17-3.71-4.25-5.08-7.27-2.05-4.52-2.75-9.79-2.86-14.85-.27-12.52-.54-25.05-.81-37.57-.07-3.21-.14-6.43-.21-9.64-.15-6.97-11-7-10.85,0,.05,2.44.1,4.88.16,7.32-11.4-11.4-28.99-15.81-44.87-13.74-19.33,2.52-36.17,14.79-40.39,34.49-2.05,9.57-1.11,19.46,2.4,28.32-.94,4.82-7.61,8.67-11.66,10.97-6.52,3.71-13.36,6.66-20.88,7.52-8.39.96-16-.88-24.1-2.76-.13-.03-.26-.05-.38-.08,3.38-2.09,6.49-4.63,9.16-7.8,8.3-9.85,13.25-23.11,11.91-36.07-1.34-12.91-7.86-24.21-18.32-31.89-11.01-8.09-24.74-10.24-38.04-8.27-10.6,1.57-20.89,5.83-29.73,12.02.02-2.75.04-5.5.06-8.25.05-6.99-10.81-6.99-10.85,0-.05,7.4-.1,14.79-.15,22.19-3,13.41-8.31,26.52-16.78,37.44-9.32,12.02-22.18,20.01-37.24,22.44-2.9.47-4.51,4.07-3.79,6.68.85,3.08,3.77,4.26,6.68,3.79,22.94-3.69,40.15-19.29,50.91-38.87-.26,37.49-.51,74.98-.77,112.47-.11,15.71-.21,31.42-.32,47.13-.05,6.99,10.81,6.99,10.85,0,.38-55.43.76-110.87,1.13-166.3.06-8.23.11-16.47.17-24.7,14.76-13.71,39.27-21.72,57.79-11.35,8.84,4.95,15.1,13.16,17.14,23.1,2.05,9.99-1.07,20.47-6.89,28.86-6.17,8.88-15.53,12.24-25.69,14.23-.38-.01-.76-.05-1.13-.06-8.96-.2-18.03,1.22-25.88,5.75-6.05,3.49-.59,12.87,5.48,9.37,6.76-3.9,14.57-4.55,22.23-4.2,8.71.39,17.11,2.24,25.55,4.3,8.67,2.12,17.41,2.55,26.22.96,8.33-1.5,16.2-5.17,23.38-9.59,3.73-2.3,7.24-4.96,9.94-8.19,2.57,3.47,5.62,6.63,9.15,9.31,16.81,12.78,41.25,12.5,57.89-.27,5.07-3.89,9.5-8.79,12.98-14.28,1.67,5.77,4.48,11.1,9.25,15.42,11.56,10.47,29.78,10.33,42.23,1.38,13.98-10.05,21.75-26.47,24.33-43.18,1.02-6.61,1.44-13.29.97-19.96,4.67,1.55,9.4,2.94,14.1,4.4,7.62,2.37,16.41,4.64,22.92,9.49.12.11.88.73,1.07.9.53.47,1.04.96,1.54,1.47.51.52,1,1.05,1.48,1.59.24.28.48.56.71.84.54.65.05.04.35.44.9,1.21,1.73,2.48,2.49,3.79.38.66.75,1.33,1.09,2.02.17.34.34.69.51,1.03.06.12.26.56.33.71.57,1.36,1.04,2.77,1.43,4.2.2.74.38,1.48.54,2.22.08.37.14.74.21,1.12.03.19.05.29.07.35,0,.02,0,.06.01.17.16,1.49.22,2.98.14,4.48-.03.6-.07,1.2-.15,1.8-.03,0-.35,1.6-.44,1.95-1.4,5.29-5.83,9.99-10.93,12.15-6.47,2.74-13.77,2.45-20.81,1.87-1.34-.11-2.66-.25-3.98-.41-5.32-.85-10.61-1.89-15.87-3.07-3.45-.95-5.88,1.34-6.54,4.04-.75,2.63.22,5.66,3.65,6.43,5.99,1.64,13.08,3.13,20.35,3.82,26.28,3.78,54.44,2.66,74.94-15.39,3.15-2.78,5.96-5.92,8.47-9.29,3.01,9.36,8.66,17.82,17.83,22.18,10.7,5.08,23.06,6.56,34.43,2.79,6.59-2.19,12.47-5.85,17.65-10.38,1.23,1.17,2.5,2.31,3.87,3.35,16.83,12.83,41.23,12.54,57.89-.27ZM273.56,691.79c-1.82,8.08-5.92,15.36-11.75,21.23-5.84,5.87-13.26,10.14-21.63,11.17-7.72.95-16.83-.77-23.62-4.55-6.46-3.6-11.16-8.68-14.49-15.39-.12-.24-.23-.51-.34-.76-.11-.38-.27-.74-.48-1.08-.98-2.36-1.81-5.09-2.37-7.99-.35-1.81-.42-2.35-.54-4.65-.09-1.85-.06-3.71.08-5.56.15-1.83.22-2.35.73-4.6.41-1.81.95-3.58,1.6-5.32.86-2.27,3.12-6.33,4.92-8.44,5.08-5.97,11.63-9.45,19.2-11.35,8.52-2.13,17.73-1.86,26.28.81,7.98,2.49,15.18,7.37,19.44,14.48,0,0,0,.01.01.02,0,0,0,.01,0,.02,3.86,6.74,4.62,14.56,2.95,21.97ZM337.83,646c-.36-.23-.71-.45-1.06-.68-.14-.09-.22-.14-.27-.17-.02-.01-.02-.02-.05-.04-.41-.35-.78-.73-1.16-1.11-.02-.02-.03-.03-.05-.05-.11-.16-.22-.32-.31-.48-.07-.12-.13-.25-.2-.37-.04-.15-.08-.29-.11-.41,0,0,0,0,0,0,.2.11.39.22.58.34.05.07.75.6.96.81.87.88,1.14,1.25,1.67,2.18ZM334.29,642.66s0,0,0,0c-.06.01-.09.01-.04-.01-.03,0-.07-.02-.11-.04.07,0,.13,0,.18,0,.01,0,.02,0,.04-.01,0,0,0,0,.01,0,0,0-.01,0-.02.02,0,0,.01,0,.02,0,0,0,.02,0,.02-.01,0,0,.02,0,.02,0,0,0-.02,0-.03.01.02,0,.05,0,.06,0,0,.01-.03.04-.03.05-.03,0-.07,0-.12-.02,0,0,.01,0,.02,0,0,0-.02,0-.03,0,0,0,0,0,0,0ZM334.72,642.12s-.01.02-.01.03c.01-.04.02-.05.01-.03ZM334.06,642.53s-.04,0-.06,0c-.04-.02-.07-.03-.11-.06.04.02.11.03.17.05ZM521.18,704.35c-1.35-2.73-2.49-6.19-3.19-9.87-.35-1.82-.42-2.38-.54-4.67-.09-1.86-.06-3.72.08-5.58.15-1.84.22-2.37.73-4.61.41-1.81.95-3.59,1.6-5.33.86-2.27,3.12-6.33,4.92-8.45,5.08-5.97,11.63-9.45,19.2-11.35,8.52-2.13,17.73-1.86,26.28.81,7.98,2.49,15.18,7.37,19.44,14.48,0,0,0,.01.01.02,0,0,0,.01,0,.02,3.86,6.75,4.62,14.59,2.95,22.02-1.82,8.1-5.91,15.43-11.75,21.33-5.84,5.9-13.25,10.2-21.63,11.23-7.73.96-16.83-.78-23.62-4.58-6.48-3.63-11.12-8.67-14.49-15.47Z"/>
      <path id="e" class="cls-6" d="M783.78,719.09c1.27,1.21,2.58,2.38,3.99,3.46,21.94,16.85,51.11,12.28,74.09.16,6.18-3.26.7-12.63-5.48-9.37-16.75,8.83-37.85,13.85-55.55,4.7-2.64-1.37-5.15-2.99-7.44-4.86,3.63-2.43,7.15-5.03,10.56-7.78,8.77-7.08,16.8-15.41,21.08-26,3.73-9.23,3.36-19.92-1.58-28.66-5.36-9.48-15.63-14.24-26.31-12.14-11.34,2.23-19.43,11.39-23.5,21.72-4.3,10.92-4.93,24.32-2.74,35.77,1.01,5.26,3.05,10.16,5.88,14.56-11.95,6.49-24.88,11.18-38.21,13.93-2.87.59-4.53,3.98-3.79,6.68.82,2.98,3.8,4.38,6.68,3.79,14.89-3.07,29.17-8.51,42.34-15.97ZM783.84,701.24c-4.11-8.65-3.93-19.67-2.27-28.92,1.56-8.69,5.22-17.26,13.4-21.53,6.31-3.3,13.74-2.22,17.98,3.65,11.01,15.22-3.42,32.24-14.91,41.83-3.82,3.19-7.84,6.1-11.99,8.82-.81-1.23-1.56-2.5-2.2-3.85Z"/>
      <path id="polpette" class="cls-6" d="M1714.77,733.76c12.05-2.38,22.78-7.53,32.67-14.6,5.36,5.06,11.65,9.11,18.63,11.59,13.87,4.94,30.5,1.93,43.83-3.28,4.06-1.59,8.02-3.4,11.88-5.43,6.18-3.26.7-12.63-5.48-9.37-12.43,6.56-26.75,10.99-40.94,9.2-7.33-.92-13.73-4.51-19.25-9.42,7.74-6.45,14.85-13.63,20.99-21.62,6.84-8.9,11.7-18.4,9.99-29.95-2.08-14.05-13.82-25.3-28.49-23.18-15.75,2.28-25.57,17.23-27.94,31.96-2.24,13.93.53,28.33,8.61,40,.33.47.69.92,1.03,1.38-5.36,3.77-11.09,7.1-16.72,9.06-6.43,2.23-13.26,4.01-20.1,4.11-2.86.04-4.82-.13-7.11-.64-1.07-.24-2.13-.54-3.17-.88-.5-.17-1-.35-1.5-.54-.15-.05-.25-.09-.32-.12-.05-.03-.13-.07-.31-.15-11-5.06-18.71-14.8-20.08-27.03-.15-33.26-.54-66.51-.87-99.77h34.18c6.98,0,7-10.85,0-10.85h-34.28c-.05-4.77-.1-9.53-.14-14.3-.1-11.84-.18-23.67-.24-35.51-.03-6.98-10.89-7-10.85,0,.07,16.6.22,33.2.37,49.81h-25.34c-6.98,0-7,10.85,0,10.85h25.44c.22,21.42.46,42.84.64,64.26.09,10.16.15,20.33.2,30.49-.4.52-.69,1.12-.81,1.8-1.2,7-3.56,14.07-8.16,19.45-4.14,4.85-9.53,8.47-15.5,10.72-6.82,2.57-14.39,2.66-21.55,1.84-6.59-.76-13.43-2.41-18.65-6.34-6.98-5.26-11.4-13.92-12.37-22.53-.02-4.94-.06-9.88-.1-14.82.23-.77.2-1.55-.02-2.32-.18-27.52-.49-55.03-.76-82.55h33.7c6.98,0,7-10.85,0-10.85h-33.8c-.05-4.79-.1-9.58-.14-14.37-.1-11.84-.18-23.67-.24-35.51-.03-6.98-10.89-7-10.85,0,.07,16.63.22,33.26.38,49.88h-25.34c-6.98,0-7,10.85,0,10.85h25.44c.22,21.39.45,42.79.64,64.18.05,6.3.08,12.59.13,18.89-4.84,11.56-10.72,22.75-19.92,31.11-3.9,3.55-7.75,6.42-12.9,9.09-5.79,3.01-12.18,4.22-18.67,4.2-5.59-.02-11.27-.59-16.62-2.26-1.03-.32-2.04-.68-3.05-1.06-.24-.09-.47-.19-.71-.28h0s-.06-.03-.13-.06c-.56-.25-1.12-.51-1.67-.78-2.12-1.04-4.17-2.24-6.11-3.59-.37-.26-.75-.54-1.13-.83,5.13-3.67,10.02-7.66,14.49-12.04,9.69-9.48,17.54-21.42,16.98-35.46-.3-7.54-2.48-15.15-7.43-20.98-5.41-6.38-13.73-8.78-21.84-7.43-18.74,3.13-26.86,22.71-27.9,39.61-.75,12.15,2.03,24.33,8.89,34.24-3.95,2.35-7.97,4.56-12.01,6.66-4.37,2.26-7.82,3.69-13.05,4.77-5.92,1.22-12.65,1.1-19.04.5-4.25-.4-8.41-1.26-12.56-2.17,3.48-2.12,6.68-4.72,9.42-7.97,8.3-9.85,13.25-23.11,11.91-36.07-1.34-12.91-7.86-24.21-18.32-31.89-11.01-8.09-24.74-10.24-38.04-8.27-10.6,1.57-20.89,5.83-29.73,12.02.02-2.75.04-5.5.06-8.25.05-6.99-10.81-6.99-10.85,0-.05,7.44-.1,14.89-.15,22.33-1.85,8.85-3.38,17.77-5.7,26.52-1.13,4.23-2.41,8.46-4.13,12.5-.46,1.07-1.7,3.62-2.58,5.18-.48.85-.98,1.68-1.51,2.5-.31.49-.64.97-.97,1.44-.06.08-.51.7-.63.86-5.13,6.56-11.96,10.32-20.29,11.08-9.41.86-17.09-2.66-23.73-9.36-3.25-3.27-5.73-6.61-8.12-10.54-1.19-1.96-2.29-4-3.25-5.99.64-.88,1.3-1.73,1.91-2.63,12.13-17.51,19.51-37.86,22.53-58.89,3.26-22.72,2.98-46.58-1.27-69.18-1.64-8.74-4.06-18.2-9.46-25.44-6.33-8.49-17.31-11.85-26.15-4.58-5.16,4.24-8.09,11.04-9.94,17.31-2.37,8.02-2.6,16.52-2.94,24.81-.68,16.63-.31,33.3,1.1,49.89,1.39,16.37,3.75,32.68,7.09,48.76,1.31,6.31,2.77,12.4,4.86,18.27-4.55,5.78-9.57,11.24-15.09,16.47-9.39,8.9-21.62,13.84-34.45,10.34-1.32-.36-2.61-.79-3.87-1.26,7.01-6.71,11.86-15.8,13.91-26.86,2.56-13.82-1.81-27.43-10.74-37.7-.03-.04-.05-.08-.08-.11-.04-.05-.09-.09-.14-.14-7.22-8.18-17.36-14.2-29.22-16.39-26.79-4.95-52.33,11.37-56.95,36.38-2.66,14.37,0,28.59,7.26,39.21-3.14,2.43-6.84,4.06-10.85,5.3-6.42,1.98-12.66,2.84-19.29,3.09-3.09.12-6.18.1-9.27-.09-1.27-.08-2.53-.2-3.79-.33-.08,0-.14-.01-.2-.02-.26-.04-.53-.08-.79-.12-.59-.1-1.17-.2-1.75-.32-2.95-.61-5.86-1.26-8.77-1.89,3.47-2.11,6.65-4.7,9.38-7.95,8.3-9.85,13.25-23.11,11.91-36.07-1.34-12.91-7.86-24.21-18.32-31.89-11.01-8.09-24.74-10.24-38.04-8.27-10.6,1.57-20.89,5.83-29.73,12.02.02-2.75.04-5.5.06-8.25.05-6.99-10.81-6.99-10.85,0-.05,7.4-.1,14.79-.15,22.19-3,13.41-8.31,26.52-16.78,37.44-9.32,12.02-22.18,20.01-37.24,22.44-2.9.47-4.51,4.07-3.79,6.68.85,3.08,3.77,4.26,6.68,3.79,22.94-3.69,40.15-19.29,50.91-38.87-.26,37.49-.51,74.98-.77,112.47-.11,15.71-.21,31.42-.32,47.13-.05,6.99,10.81,6.99,10.85,0,.38-55.43.76-110.87,1.13-166.3.06-8.23.11-16.47.17-24.7,14.76-13.71,39.27-21.72,57.79-11.35,8.84,4.95,15.1,13.16,17.14,23.1,2.05,9.99-1.07,20.47-6.89,28.86-6.15,8.87-15.49,12.23-25.64,14.22-9.35-.33-18.85.96-27.06,5.69-6.05,3.49-.59,12.87,5.48,9.37,7.7-4.44,16.78-4.69,25.43-4,8.84.71,17.14,3.35,25.82,4.85,12.78,2.21,26.82,1.39,39.24-2.35,5.5-1.66,11.08-4.09,15.6-7.76,6.26,5.32,14.1,8.75,23.18,9.99,3.38.46,6.67.69,9.85.69,9.56,0,18.18-2.06,25.48-5.89,6.59,3.57,13.85,5.76,21.46,6.05,15.19.58,27.98-7.86,38.24-18.25,3.05-3.09,5.98-6.3,8.79-9.61.34.62.66,1.24,1.03,1.85,5.53,9.22,13.26,18.02,23.24,22.49,10.56,4.73,22.7,3.98,33.11-.85,9.96-4.62,16.26-13.1,20.56-22.81-.23,33.2-.45,66.4-.68,99.6-.11,15.71-.21,31.42-.32,47.13-.05,6.99,10.81,6.99,10.85,0,.38-55.43.76-110.87,1.13-166.3.06-8.23.11-16.47.17-24.7,14.76-13.71,39.27-21.72,57.79-11.35,8.84,4.95,15.1,13.16,17.14,23.1,2.05,9.99-1.07,20.47-6.89,28.86-6.16,8.87-15.5,12.23-25.65,14.22-5.38-.2-10.77.12-16.03,1.33-3.86.89-7.6,2.38-11.02,4.36-6.05,3.49-.59,12.87,5.48,9.37,7.3-4.21,15.83-4.64,24.06-4.1,9.78.65,19,3.76,28.69,4.98,14.03,1.76,27.46.64,40.21-5.71,5.1-2.54,10.17-5.31,15.1-8.33,7.07,6.3,16.12,10.74,25.4,12.24,8.33,1.35,16.83,1.77,25.14.06,7.3-1.5,13.98-4.95,19.99-9.27,8.63-6.21,15.41-13.89,20.86-22.77,1.79,8.19,5.5,15.83,11.47,21.93,6.24,6.37,14.36,9.77,23.01,11.4,9.03,1.7,18.7,2.1,27.66-.25,7.92-2.08,15.69-6.58,21.48-12.35,3.15-3.13,5.68-6.73,7.71-10.6,3.71,7.82,9.57,14.44,17.47,19,10.21,5.9,21.38,6.66,32.8,4.4ZM1753.15,651.12c4.3-2.69,9.77-4.02,14.52-1.78,4.08,1.92,6.76,5.94,8.04,10.17,1.28,4.25,1.36,8.73-.1,12.91-.08.23-.17.45-.25.68-.06.13-.34.8-.38.88-.38.78-.77,1.56-1.19,2.32-1.13,2.05-2.4,4.02-3.75,5.93-5.77,8.16-13.35,15.66-21.17,22.2-4.44-6.2-7.37-13.49-8-21.12-.94-11.34,1.92-25.7,12.29-32.19ZM1208.68,692.55c-.9,4.84-3.92,15.8-13.36,23.35-4.03-2.93-7.58-6.55-10.63-10.71-6.25-8.56-11.04-19.16-10.4-29.97.27-4.6,1.92-9.56,4.73-13.19,2.66-3.43,6.02-5.25,9.78-5.08,4.16.19,8.26,3.41,11.38,6.72,7,7.88,10.45,18.31,8.5,28.88ZM1161.45,723.11c-9.79-1.34-17.37-5.63-22.53-12.76-6.02-8.33-8.21-19.92-6.02-31.81,3.44-18.56,22.28-30.77,42.47-27.93-.25.18-.5.35-.74.54-10.08,8.11-12.57,22.38-10.41,34.48,2.42,13.59,10.09,26.65,20.78,35.88-6.16,2.09-13.87,2.93-23.55,1.6ZM1284.9,576.32c-.13-.92-.03-.25,0,0h0ZM1265.11,677.73c-1.58-7.29-2.94-14.62-4.11-21.98-4.62-29.3-6.22-59.68-3.64-89.27.54-6.21,2.21-12.69,5.51-18.03,1.03-1.67,2.33-3.42,4.14-4.31.79-.39,1.38-.53,2.25-.58.3-.02.61,0,.91.01.18,0,.24-.01.26-.03.09.04.23.08.47.16.27.09.55.16.82.24.07.02.09.02.14.04.05.03.07.04.13.08.53.3,1.04.62,1.54.96.11.14,1.03.93,1.21,1.12.33.34.63.69.94,1.05.07.08.11.12.15.17.03.05.08.13.18.27,1.08,1.57,2.01,3.22,2.82,4.94.76,1.61,1.18,2.74,1.91,4.93,1.31,3.98,2.28,8.07,3.06,12.18.33,1.74.62,3.48.88,5.23.07.48.14.95.21,1.43,0,0,0,0,0,0,.11.87.22,1.74.32,2.61,1.27,11.21,1.77,22.57,1.46,33.85-.54,20.26-4.27,41.09-12.87,59.09-2.16,4.51-4.55,8.77-7.13,12.87-.56-2.34-1.06-4.7-1.57-7.05ZM1482.42,704.24c-3.1-4.87-4.99-10.19-5.79-15.99-1.82-13.22.82-31.32,13.85-38.12,4.96-2.59,11.35-2.74,15.49,1.07,4.02,3.7,5.64,9.62,5.85,15.02.21,5.19-.67,9.42-3.09,14-2.81,5.32-6.7,9.89-11,14.06-4.39,4.26-9.2,8.06-14.23,11.55-.39-.53-.75-1.05-1.08-1.58Z"/>
    </g>
  </g>
</svg>